<svg width="806" height="349" viewBox="0 0 806 349" fill="none" xmlns="http://www.w3.org/2000/svg">
<g clip-path="url(#clip0_102_452)">
<path d="M727.036 143.973H254.151C252.143 143.973 250.218 144.769 248.798 146.186C247.378 147.603 246.581 149.525 246.581 151.529C246.581 153.534 247.378 155.456 248.798 156.873C250.218 158.29 252.143 159.086 254.151 159.086H267.546V339.868C267.546 341.873 268.344 343.795 269.763 345.212C271.183 346.629 273.109 347.425 275.117 347.425C277.125 347.425 279.05 346.629 280.47 345.212C281.89 343.795 282.688 341.873 282.688 339.868L282.803 159.086H662.34L697.335 339.868C697.335 341.873 698.133 343.795 699.552 345.212C700.972 346.629 702.898 347.425 704.906 347.425C706.914 347.425 708.839 346.629 710.259 345.212C711.679 343.795 712.477 341.873 712.477 339.868L714.679 159.086H727.036C729.044 159.086 730.969 158.29 732.389 156.873C733.809 155.456 734.607 153.534 734.607 151.529C734.607 149.525 733.809 147.603 732.389 146.186C730.969 144.769 729.044 143.973 727.036 143.973Z" fill="#CCCCCC"/>
<path d="M336.119 110.301V142.302H255.796C253.691 142.375 251.592 142.033 249.619 141.297C247.646 140.56 245.838 139.443 244.298 138.009C242.758 136.575 241.515 134.852 240.642 132.939C239.769 131.025 239.282 128.959 239.208 126.858C239.135 124.757 239.477 122.662 240.215 120.692C240.953 118.723 242.072 116.918 243.509 115.381C244.946 113.843 246.672 112.603 248.589 111.732C250.506 110.86 252.576 110.374 254.681 110.301C255.053 110.288 255.424 110.288 255.796 110.301L336.119 110.301Z" fill="#F2F2F2"/>
<path d="M338.093 142.055C338.092 142.381 337.963 142.694 337.731 142.925C337.5 143.156 337.187 143.286 336.86 143.286H254.366C249.888 143.283 245.594 141.505 242.428 138.343C239.263 135.181 237.484 130.894 237.484 126.424C237.484 121.954 239.263 117.666 242.428 114.504C245.594 111.343 249.888 109.565 254.366 109.562H336.86C337.022 109.561 337.182 109.593 337.332 109.654C337.482 109.716 337.619 109.807 337.734 109.921C337.848 110.035 337.939 110.171 338.002 110.321C338.064 110.47 338.096 110.63 338.096 110.792C338.096 110.954 338.064 111.115 338.002 111.264C337.939 111.414 337.848 111.549 337.734 111.664C337.619 111.778 337.482 111.869 337.332 111.93C337.182 111.992 337.022 112.024 336.86 112.023H254.366C250.543 112.029 246.879 113.549 244.178 116.249C241.478 118.949 239.961 122.608 239.961 126.424C239.961 130.239 241.478 133.899 244.178 136.599C246.879 139.299 250.543 140.818 254.366 140.824H336.86C337.187 140.824 337.5 140.954 337.731 141.185C337.963 141.416 338.092 141.729 338.093 142.055Z" fill="#35BA98"/>
<path d="M336.119 117.686H249.803C249.738 117.686 249.675 117.661 249.629 117.615C249.582 117.569 249.556 117.507 249.555 117.442C249.555 117.377 249.58 117.314 249.625 117.267C249.671 117.221 249.733 117.194 249.799 117.193H336.119C336.184 117.194 336.246 117.22 336.292 117.266C336.338 117.312 336.363 117.375 336.363 117.439C336.363 117.504 336.338 117.567 336.292 117.613C336.246 117.659 336.184 117.685 336.119 117.686Z" fill="#CCCCCC"/>
<path d="M336.119 123.594H249.803C249.738 123.594 249.675 123.569 249.629 123.523C249.582 123.477 249.556 123.415 249.555 123.35C249.555 123.285 249.58 123.222 249.625 123.176C249.671 123.129 249.733 123.102 249.799 123.102H336.119C336.184 123.102 336.246 123.128 336.292 123.175C336.338 123.221 336.363 123.283 336.363 123.348C336.363 123.413 336.338 123.475 336.292 123.521C336.246 123.567 336.184 123.593 336.119 123.594Z" fill="#CCCCCC"/>
<path d="M336.119 129.502H249.803C249.738 129.502 249.675 129.477 249.629 129.431C249.582 129.386 249.556 129.323 249.555 129.258C249.555 129.193 249.58 129.13 249.625 129.084C249.671 129.037 249.733 129.011 249.799 129.01H336.119C336.184 129.01 336.246 129.037 336.292 129.083C336.338 129.129 336.363 129.191 336.363 129.256C336.363 129.321 336.338 129.383 336.292 129.429C336.246 129.475 336.184 129.501 336.119 129.502Z" fill="#CCCCCC"/>
<path d="M336.119 135.409H249.803C249.738 135.41 249.675 135.384 249.629 135.338C249.582 135.293 249.556 135.231 249.555 135.165C249.555 135.1 249.58 135.038 249.625 134.991C249.671 134.944 249.733 134.918 249.799 134.917H336.119C336.184 134.918 336.246 134.944 336.292 134.99C336.338 135.036 336.363 135.098 336.363 135.163C336.363 135.228 336.338 135.29 336.292 135.336C336.246 135.382 336.184 135.409 336.119 135.409Z" fill="#CCCCCC"/>
<path d="M320.978 76.5859V108.587H240.655C236.403 108.735 232.267 107.19 229.156 104.294C226.045 101.398 224.215 97.3866 224.067 93.143C223.919 88.8994 225.466 84.771 228.368 81.6659C231.269 78.5608 235.288 76.7335 239.539 76.5859C239.911 76.5729 240.283 76.5729 240.655 76.5859H320.978Z" fill="#F2F2F2"/>
<path d="M322.951 108.341C322.951 108.667 322.821 108.98 322.59 109.211C322.359 109.442 322.045 109.572 321.718 109.572H239.224C234.744 109.572 230.447 107.795 227.279 104.633C224.111 101.471 222.331 97.1818 222.331 92.7097C222.331 88.2376 224.111 83.9487 227.279 80.7864C230.447 77.6242 234.744 75.8477 239.224 75.8477H321.718C321.88 75.8477 322.04 75.8795 322.19 75.9413C322.339 76.0032 322.475 76.0938 322.59 76.2081C322.704 76.3224 322.795 76.4581 322.857 76.6075C322.919 76.7568 322.951 76.9168 322.951 77.0785C322.951 77.2401 322.919 77.4001 322.857 77.5495C322.795 77.6988 322.704 77.8345 322.59 77.9488C322.475 78.0631 322.339 78.1537 322.19 78.2156C322.04 78.2774 321.88 78.3093 321.718 78.3093H239.224C235.398 78.3093 231.728 79.8265 229.023 82.5271C226.317 85.2277 224.797 88.8905 224.797 92.7097C224.797 96.529 226.317 100.192 229.023 102.892C231.728 105.593 235.398 107.11 239.224 107.11H321.718C322.045 107.11 322.359 107.24 322.59 107.471C322.821 107.702 322.951 108.015 322.951 108.341Z" fill="#3F3D56"/>
<path d="M320.978 83.9708H234.662C234.596 83.9712 234.534 83.9457 234.487 83.9C234.441 83.8543 234.414 83.7921 234.414 83.7269C234.413 83.6618 234.438 83.5991 234.484 83.5525C234.53 83.506 234.592 83.4794 234.657 83.4785H320.978C321.043 83.4792 321.105 83.5054 321.15 83.5515C321.196 83.5976 321.222 83.6598 321.222 83.7247C321.222 83.7895 321.196 83.8518 321.15 83.8979C321.105 83.944 321.043 83.9702 320.978 83.9708Z" fill="#CCCCCC"/>
<path d="M320.978 89.879H234.662C234.597 89.8794 234.534 89.8539 234.488 89.8082C234.441 89.7625 234.415 89.7003 234.414 89.6352C234.413 89.57 234.439 89.5073 234.484 89.4608C234.53 89.4142 234.592 89.3876 234.657 89.3867H320.978C321.043 89.3874 321.105 89.4136 321.151 89.4597C321.197 89.5058 321.222 89.568 321.222 89.6329C321.222 89.6977 321.197 89.76 321.151 89.8061C321.105 89.8522 321.043 89.8784 320.978 89.879Z" fill="#CCCCCC"/>
<path d="M320.978 95.7862H234.662C234.596 95.7866 234.534 95.7611 234.487 95.7154C234.441 95.6697 234.414 95.6075 234.414 95.5424C234.413 95.4772 234.438 95.4145 234.484 95.368C234.53 95.3214 234.592 95.2948 234.657 95.2939H320.978C321.043 95.2946 321.105 95.3208 321.15 95.3669C321.196 95.413 321.222 95.4752 321.222 95.5401C321.222 95.605 321.196 95.6672 321.15 95.7133C321.105 95.7594 321.043 95.7856 320.978 95.7862Z" fill="#CCCCCC"/>
<path d="M320.978 101.694H234.662C234.597 101.695 234.534 101.669 234.488 101.624C234.441 101.578 234.415 101.516 234.414 101.451C234.413 101.385 234.439 101.323 234.484 101.276C234.53 101.23 234.592 101.203 234.657 101.202H320.978C321.043 101.203 321.105 101.229 321.151 101.275C321.197 101.321 321.222 101.383 321.222 101.448C321.222 101.513 321.197 101.575 321.151 101.621C321.105 101.668 321.043 101.694 320.978 101.694Z" fill="#CCCCCC"/>
<path d="M414.418 257.211V229.309C414.418 228.075 413.927 226.892 413.053 226.02C412.179 225.148 410.994 224.658 409.759 224.658H303.767C302.532 224.658 301.347 225.148 300.473 226.02C299.599 226.892 299.108 228.075 299.108 229.309V257.211H414.418Z" fill="#CCCCCC"/>
<path d="M414.418 267.674H299.109V303.714H414.418V267.674Z" fill="#CCCCCC"/>
<path d="M299.108 314.178V342.08C299.108 343.313 299.599 344.496 300.473 345.368C301.347 346.24 302.532 346.73 303.767 346.73H409.759C410.994 346.73 412.179 346.24 413.053 345.368C413.927 344.496 414.418 343.313 414.418 342.08V314.178H299.108Z" fill="#CCCCCC"/>
<path d="M356.181 245.585C358.111 245.585 359.675 244.023 359.675 242.097C359.675 240.171 358.111 238.609 356.181 238.609C354.251 238.609 352.687 240.171 352.687 242.097C352.687 244.023 354.251 245.585 356.181 245.585Z" fill="white"/>
<path d="M356.181 292.088C358.111 292.088 359.675 290.526 359.675 288.6C359.675 286.674 358.111 285.112 356.181 285.112C354.251 285.112 352.687 286.674 352.687 288.6C352.687 290.526 354.251 292.088 356.181 292.088Z" fill="white"/>
<path d="M356.368 337.607C358.298 337.607 359.862 336.046 359.862 334.12C359.862 332.193 358.298 330.632 356.368 330.632C354.438 330.632 352.874 332.193 352.874 334.12C352.874 336.046 354.438 337.607 356.368 337.607Z" fill="white"/>
<path d="M401.345 192.845V224.846H321.022C316.772 224.99 312.639 223.445 309.53 220.549C306.422 217.653 304.593 213.644 304.445 209.402C304.297 205.16 305.842 201.034 308.741 197.929C311.64 194.824 315.656 192.995 319.905 192.845C320.277 192.832 320.649 192.832 321.022 192.845H401.345Z" fill="#F2F2F2"/>
<path d="M403.318 224.6C403.318 224.926 403.188 225.239 402.957 225.47C402.726 225.701 402.412 225.83 402.085 225.831H319.591C315.112 225.832 310.816 224.057 307.647 220.897C304.478 217.737 302.697 213.45 302.694 208.979C302.691 204.508 304.468 200.218 307.632 197.055C310.797 193.891 315.092 192.111 319.571 192.106H402.085C402.247 192.106 402.408 192.138 402.558 192.199C402.708 192.261 402.844 192.351 402.959 192.466C403.074 192.58 403.165 192.716 403.227 192.866C403.289 193.015 403.321 193.175 403.321 193.337C403.321 193.499 403.289 193.659 403.227 193.809C403.165 193.959 403.074 194.094 402.959 194.209C402.844 194.323 402.708 194.414 402.558 194.475C402.408 194.537 402.247 194.568 402.085 194.568H319.591C315.768 194.573 312.104 196.092 309.402 198.793C306.7 201.493 305.183 205.153 305.183 208.969C305.183 212.784 306.7 216.444 309.402 219.145C312.104 221.845 315.768 223.364 319.591 223.369H402.085C402.412 223.369 402.726 223.499 402.957 223.73C403.188 223.96 403.318 224.273 403.318 224.6Z" fill="#3F3D56"/>
<path d="M401.345 200.23H315.029C314.963 200.23 314.901 200.204 314.854 200.159C314.808 200.113 314.781 200.051 314.781 199.986C314.78 199.921 314.805 199.858 314.851 199.811C314.897 199.765 314.959 199.738 315.024 199.737H401.345C401.41 199.738 401.472 199.764 401.518 199.81C401.563 199.856 401.589 199.919 401.589 199.983C401.589 200.048 401.563 200.111 401.518 200.157C401.472 200.203 401.41 200.229 401.345 200.23Z" fill="#CCCCCC"/>
<path d="M401.345 206.137H315.029C314.964 206.137 314.901 206.112 314.855 206.066C314.808 206.02 314.782 205.958 314.781 205.893C314.781 205.828 314.806 205.765 314.852 205.719C314.897 205.672 314.959 205.645 315.025 205.645H401.345C401.41 205.645 401.472 205.671 401.518 205.718C401.564 205.764 401.59 205.826 401.59 205.891C401.59 205.956 401.564 206.018 401.518 206.064C401.472 206.11 401.41 206.136 401.345 206.137Z" fill="#CCCCCC"/>
<path d="M401.345 212.045H315.029C314.963 212.045 314.901 212.02 314.854 211.974C314.808 211.928 314.781 211.866 314.781 211.801C314.78 211.736 314.805 211.673 314.851 211.627C314.897 211.58 314.959 211.554 315.024 211.553H401.345C401.41 211.553 401.472 211.58 401.518 211.626C401.563 211.672 401.589 211.734 401.589 211.799C401.589 211.864 401.563 211.926 401.518 211.972C401.472 212.018 401.41 212.044 401.345 212.045Z" fill="#CCCCCC"/>
<path d="M401.345 217.952H315.029C314.964 217.953 314.901 217.927 314.855 217.881C314.808 217.836 314.782 217.773 314.781 217.708C314.781 217.643 314.806 217.581 314.852 217.534C314.897 217.487 314.959 217.461 315.025 217.46H401.345C401.41 217.461 401.472 217.487 401.518 217.533C401.564 217.579 401.59 217.641 401.59 217.706C401.59 217.771 401.564 217.833 401.518 217.879C401.472 217.925 401.41 217.952 401.345 217.952Z" fill="#CCCCCC"/>
<path d="M307.01 65.9104H270.414C270.066 65.9101 269.724 65.9897 269.412 66.143L260.176 70.7584C259.872 70.8873 259.612 71.1027 259.43 71.3777C259.248 71.6526 259.151 71.975 259.151 72.3046C259.151 72.6343 259.248 72.9566 259.43 73.2316C259.612 73.5065 259.872 73.7219 260.176 73.8508L269.412 78.4663C269.724 78.6195 270.066 78.6991 270.414 78.6988H307.01C307.514 78.7279 308.01 78.5576 308.389 78.2246C308.768 77.8917 309.001 77.423 309.037 76.92V67.6891C309.001 67.1862 308.768 66.7175 308.389 66.3846C308.01 66.0517 307.514 65.8813 307.01 65.9104Z" fill="#3F3D56"/>
<path d="M309.037 67.6892V76.9201C309.001 77.423 308.768 77.8918 308.389 78.2247C308.01 78.5577 307.514 78.728 307.01 78.6989H299.719V65.9104H307.01C307.514 65.8813 308.01 66.0517 308.389 66.3846C308.768 66.7175 309.001 67.1862 309.037 67.6892Z" fill="#35BA98"/>
<path d="M87.6051 246.786C92.3174 248.439 97.3769 248.853 102.296 247.988C107.215 247.123 111.828 245.008 115.691 241.847C125.528 233.606 128.612 220.028 131.122 207.456C133.596 195.061 136.07 182.666 138.545 170.271L123.004 180.951C111.829 188.632 100.401 196.559 92.6634 207.684C84.9254 218.81 81.5478 233.997 87.765 246.035" fill="#E6E6E6"/>
<path d="M88.9335 291.807C87.3606 280.371 85.7433 268.788 86.8465 257.23C87.8264 246.965 90.9639 236.939 97.3515 228.718C100.742 224.363 104.868 220.631 109.543 217.691C110.762 216.923 111.884 218.851 110.67 219.616C102.581 224.719 96.3238 232.255 92.8016 241.136C88.9113 251.013 88.2866 261.779 88.957 272.271C89.3624 278.616 90.2216 284.919 91.0874 291.214C91.1557 291.499 91.1131 291.799 90.9683 292.053C90.8235 292.308 90.5873 292.498 90.3074 292.585C90.0218 292.662 89.7174 292.623 89.4602 292.478C89.203 292.332 89.0137 292.091 88.9335 291.807Z" fill="#F2F2F2"/>
<path d="M104.083 271.571C106.105 274.637 108.883 277.132 112.15 278.815C115.417 280.498 119.064 281.313 122.738 281.181C132.182 280.734 140.055 274.155 147.142 267.91L168.103 249.436L154.23 248.773C144.253 248.297 134.019 247.852 124.516 250.923C115.014 253.994 106.25 261.385 104.512 271.203" fill="#E6E6E6"/>
<path d="M84.4884 298.381C92.0589 285.01 100.84 270.15 116.53 265.4C120.893 264.084 125.468 263.613 130.008 264.011C131.439 264.134 131.081 266.336 129.653 266.213C122.043 265.582 114.447 267.588 108.145 271.893C102.081 276.013 97.3591 281.741 93.3626 287.816C90.9147 291.537 88.7219 295.415 86.5288 299.289C85.8279 300.527 83.7793 299.633 84.4884 298.381Z" fill="#F2F2F2"/>
<path d="M72.3585 312.454C72.6135 309.504 73.6747 306.68 75.4264 304.29C77.1781 301.901 79.5532 300.036 82.293 298.901V291.171H95.2818V299.144C97.8867 300.336 100.129 302.195 101.779 304.533C103.429 306.872 104.428 309.605 104.675 312.454L107.73 347.892H69.3042L72.3585 312.454Z" fill="#F2F2F2"/>
<path d="M514.085 143.246L510.221 141.622L507.57 122.288H472.272L469.399 141.543L465.942 143.269C465.777 143.351 465.644 143.487 465.566 143.654C465.487 143.821 465.468 144.01 465.51 144.19C465.553 144.369 465.655 144.529 465.8 144.644C465.945 144.759 466.124 144.821 466.309 144.821H513.766C513.956 144.821 514.14 144.755 514.286 144.636C514.433 144.516 514.534 144.349 514.571 144.164C514.609 143.978 514.581 143.786 514.492 143.618C514.403 143.451 514.26 143.32 514.085 143.246Z" fill="#E6E6E6"/>
<path d="M576.812 124.86H403.417C402.508 124.858 401.636 124.496 400.993 123.853C400.351 123.21 399.99 122.339 399.99 121.431V97.0254H580.24V121.431C580.24 122.339 579.879 123.21 579.237 123.853C578.594 124.496 577.722 124.858 576.812 124.86Z" fill="#CCCCCC"/>
<path d="M580.421 108.561H399.832V4.13348C399.833 3.03758 400.269 1.98693 401.046 1.21202C401.822 0.437112 402.875 0.00122625 403.973 0H576.28C577.378 0.00122623 578.43 0.437113 579.207 1.21202C579.983 1.98693 580.42 3.03758 580.421 4.13348L580.421 108.561Z" fill="#3F3D56"/>
<path d="M569.635 100.981H410.617C409.771 100.98 408.959 100.644 408.361 100.047C407.762 99.4494 407.426 98.6395 407.425 97.7946V10.7659C407.426 9.92104 407.762 9.11101 408.361 8.51357C408.959 7.91613 409.771 7.58007 410.617 7.5791H569.635C570.482 7.58007 571.293 7.91613 571.892 8.51357C572.49 9.11101 572.827 9.92104 572.828 10.7659V97.7946C572.827 98.6395 572.49 99.4494 571.892 100.047C571.293 100.644 570.482 100.98 569.635 100.981Z" fill="white"/>
<path d="M527.753 131.69C528.779 130.743 530.001 130.033 531.333 129.609C532.664 129.185 534.073 129.057 535.459 129.235C536.845 129.413 538.175 129.892 539.356 130.639C540.537 131.386 541.539 132.382 542.292 133.557L563.801 129.74L569.313 142.221L538.862 147.185C536.801 148.317 534.394 148.656 532.1 148.135C529.805 147.615 527.781 146.273 526.412 144.363C525.043 142.453 524.423 140.108 524.67 137.772C524.917 135.436 526.014 133.272 527.753 131.69Z" fill="#FFB6B6"/>
<path d="M547.666 147.626L570.09 147.347L572.928 147.308L618.55 146.735C618.55 146.735 630.939 134.937 641.726 122.791L640.214 111.875C638.74 101.162 633.415 91.3481 625.233 84.2607C609.782 94.5656 600.822 114.963 600.822 114.963L572.535 121.716L569.705 122.392L552.128 126.584L547.666 147.626Z" fill="#35BA98"/>
<path d="M662.456 214.721H620.599C620.599 216.511 574.844 217.964 574.844 217.964C573.835 218.722 572.915 219.593 572.102 220.558C569.66 223.466 568.325 227.141 568.333 230.936V233.53C568.335 237.83 570.047 241.954 573.093 244.994C576.139 248.035 580.27 249.744 584.578 249.745H662.456C666.763 249.742 670.893 248.032 673.939 244.992C676.984 241.952 678.697 237.83 678.701 233.53V230.936C678.695 226.637 676.981 222.516 673.936 219.477C670.891 216.437 666.762 214.727 662.456 214.721Z" fill="#E4E4E4"/>
<path d="M632.017 249.103H615.122V346.441H632.017V249.103Z" fill="#E4E4E4"/>
<path d="M567.037 345.847C567.037 347.67 592.639 346.552 624.22 346.552C655.801 346.552 681.403 347.67 681.403 345.847C681.403 344.025 655.801 329.576 624.22 329.576C592.639 329.576 567.037 344.025 567.037 345.847Z" fill="#E4E4E4"/>
<path d="M555.687 334.726L543.114 334.725L537.132 286.315L555.689 286.316L555.687 334.726Z" fill="#FFB6B6"/>
<path d="M558.894 346.892L518.351 346.89V346.378C518.351 342.201 520.014 338.195 522.973 335.241C525.932 332.287 529.946 330.627 534.131 330.627H534.132L558.895 330.628L558.894 346.892Z" fill="#2F2E41"/>
<path d="M518.524 334.726L505.95 334.725L499.969 286.315L518.526 286.316L518.524 334.726Z" fill="#FFB6B6"/>
<path d="M521.731 346.892L481.188 346.89V346.378C481.188 342.201 482.851 338.195 485.81 335.241C488.769 332.287 492.783 330.627 496.968 330.627H496.969L521.732 330.628L521.731 346.892Z" fill="#2F2E41"/>
<path d="M631.158 56.0261C643.233 56.0261 653.021 46.256 653.021 34.204C653.021 22.1519 643.233 12.3818 631.158 12.3818C619.084 12.3818 609.296 22.1519 609.296 34.204C609.296 46.256 619.084 56.0261 631.158 56.0261Z" fill="#FFB6B6"/>
<path d="M666.542 183.72C666.542 183.72 673.878 222.438 645.967 227.368C618.057 232.298 577.767 235.764 577.767 235.764L559.674 320.021L535.367 317.855C535.367 317.855 538.6 216.428 546.55 208.492C554.5 200.557 604.747 176.797 604.747 176.797L666.542 183.72Z" fill="#2F2E41"/>
<path d="M612.032 167.494L599.825 179.717C599.825 179.717 511.685 193.888 508.285 214.208C503.151 244.886 497.088 311.597 497.088 311.597L523.588 309.614L533.98 233.781L576.38 224.154L624.62 197.913L612.032 167.494Z" fill="#2F2E41"/>
<path d="M652.197 21.1778C650.039 17.1134 647.297 9.01324 642.941 7.51096C640.522 6.71033 638.021 6.1787 635.485 5.92571L628.081 8.76814L632.111 5.6399C631.327 5.59325 630.542 5.5551 629.759 5.52548L624.763 7.44328L627.319 5.45912C622.662 5.41141 617.854 5.89477 614.246 8.72472C611.169 11.1373 608.121 20.2764 607.628 24.1503C607.101 27.8563 607.286 31.6284 608.172 35.2656L609.437 36.4663C609.879 35.4535 610.212 34.3962 610.429 33.3127C610.883 31.2882 611.754 29.3802 612.987 27.7103C614.22 26.0405 615.788 24.6453 617.592 23.6138L617.66 23.5751C619.782 22.3831 622.357 22.438 624.79 22.5255L636.347 22.9405C639.127 23.0404 642.121 23.216 644.289 24.9568C645.666 26.241 646.75 27.8073 647.464 29.5484C648.541 31.7183 650.646 39.9026 650.646 39.9026C650.646 39.9026 651.837 38.3577 652.408 39.5076C653.323 36.5075 653.879 33.4099 654.065 30.2793C654.247 27.1348 653.603 23.9974 652.197 21.1778Z" fill="#2F2E41"/>
<path d="M728.662 43.7877C727.267 43.8794 725.91 44.2752 724.685 44.9471C723.46 45.6191 722.398 46.551 721.573 47.6771C720.748 48.8032 720.181 50.0961 719.91 51.4648C719.64 52.8336 719.674 54.2448 720.009 55.599L702.429 68.5435L707.704 81.1261L732.274 62.498C734.516 61.7848 736.418 60.2756 737.62 58.2563C738.821 56.2369 739.239 53.8477 738.794 51.5415C738.349 49.2352 737.071 47.172 735.204 45.743C733.337 44.3139 731.009 43.6182 728.662 43.7877Z" fill="#FFB6B6"/>
<path d="M725.833 70.2128L681.759 119.071C681.759 119.071 660.683 112.336 644.383 105.034L637.06 82.5847C635.359 77.3766 634.634 71.9007 634.919 66.4305C657.516 60.4287 683.799 82.7606 683.799 82.7606L716.789 56.9668L725.833 70.2128Z" fill="#35BA98"/>
<path d="M622.993 187.33C615.13 184.619 606.999 181.815 598.229 180.763L597.853 180.717L597.957 180.354C607.035 148.537 604.769 128.183 600.32 97.6104C599.374 91.0158 600.59 84.2926 603.786 78.4443C606.982 72.596 611.987 67.9362 618.055 65.1604L618.109 65.1361L643.156 63.5474L643.214 63.5439L661.43 68.8918C664.051 69.6668 666.345 71.278 667.96 73.4786C669.576 75.6792 670.424 78.3478 670.374 81.0754C670.177 91.13 670.595 102.356 671.039 114.24C672.033 140.902 673.061 168.472 667.228 186.36L667.197 186.454L667.119 186.515C661.757 190.874 655.039 193.23 648.123 193.175C639.947 193.175 631.602 190.298 622.993 187.33Z" fill="#35BA98"/>
<path d="M804.835 349H1.16474C0.855834 349 0.559581 348.877 0.34115 348.659C0.122719 348.441 0 348.146 0 347.837C0 347.529 0.122719 347.233 0.34115 347.015C0.559581 346.797 0.855834 346.675 1.16474 346.675H804.835C805.144 346.675 805.44 346.797 805.659 347.015C805.877 347.233 806 347.529 806 347.837C806 348.146 805.877 348.441 805.659 348.659C805.44 348.877 805.144 349 804.835 349Z" fill="#CCCCCC"/>
</g>
<defs>
<clipPath id="clip0_102_452">
<rect width="806" height="349" fill="white"/>
</clipPath>
</defs>
</svg>
