<svg width="672" height="292" viewBox="0 0 672 292" fill="none" xmlns="http://www.w3.org/2000/svg">
<g clip-path="url(#clip0_102_270)">
<path d="M606.164 120.17H211.898C210.224 120.17 208.618 120.834 207.434 122.017C206.25 123.2 205.585 124.805 205.585 126.477C205.585 128.15 206.25 129.755 207.434 130.937C208.618 132.12 210.224 132.785 211.898 132.785H223.065V283.679C223.065 285.351 223.73 286.956 224.914 288.139C226.098 289.321 227.703 289.986 229.377 289.986C231.051 289.986 232.657 289.321 233.841 288.139C235.025 286.956 235.69 285.351 235.69 283.679L235.785 132.785H552.224L581.401 283.679C581.401 285.351 582.066 286.956 583.249 288.139C584.433 289.321 586.039 289.986 587.713 289.986C589.387 289.986 590.992 289.321 592.176 288.139C593.36 286.956 594.025 285.351 594.025 283.679L595.861 132.785H606.164C607.838 132.785 609.443 132.12 610.627 130.937C611.811 129.755 612.476 128.15 612.476 126.477C612.476 124.805 611.811 123.2 610.627 122.017C609.443 120.834 607.838 120.17 606.164 120.17Z" fill="#CCCCCC"/>
<path d="M280.238 92.0647V118.775H213.269C211.514 118.836 209.764 118.551 208.119 117.936C206.474 117.321 204.967 116.389 203.683 115.192C202.398 113.995 201.363 112.557 200.635 110.96C199.906 109.363 199.5 107.638 199.439 105.885C199.378 104.131 199.663 102.382 200.279 100.738C200.894 99.0947 201.827 97.5882 203.025 96.3049C204.223 95.0216 205.662 93.9867 207.26 93.2591C208.858 92.5316 210.584 92.1257 212.339 92.0647C212.649 92.0539 212.959 92.0539 213.269 92.0647L280.238 92.0647Z" fill="#F2F2F2"/>
<path d="M281.884 118.57C281.884 118.842 281.775 119.103 281.583 119.296C281.39 119.488 281.128 119.597 280.856 119.597H212.077C208.343 119.594 204.763 118.11 202.124 115.471C199.485 112.832 198.002 109.254 198.002 105.523C198.002 101.792 199.485 98.2131 202.124 95.574C204.763 92.9348 208.343 91.4508 212.077 91.4482H280.856C280.991 91.4479 281.125 91.4742 281.25 91.5257C281.375 91.5772 281.489 91.6528 281.584 91.7482C281.68 91.8436 281.756 91.957 281.808 92.0818C281.86 92.2066 281.886 92.3404 281.886 92.4756C281.886 92.6107 281.86 92.7445 281.808 92.8693C281.756 92.9942 281.68 93.1075 281.584 93.2029C281.489 93.2984 281.375 93.374 281.25 93.4255C281.125 93.4769 280.991 93.5032 280.856 93.5029H212.077C208.89 93.5077 205.835 94.7762 203.583 97.0298C201.331 99.2834 200.066 102.338 200.066 105.523C200.066 108.707 201.331 111.762 203.583 114.015C205.835 116.269 208.89 117.537 212.077 117.542H280.856C281.128 117.542 281.39 117.651 281.583 117.843C281.775 118.036 281.884 118.297 281.884 118.57Z" fill="#35BA98"/>
<path d="M280.239 98.2293H208.273C208.218 98.2296 208.166 98.2083 208.127 98.1701C208.088 98.132 208.066 98.08 208.066 98.0257C208.065 97.9713 208.087 97.919 208.125 97.8802C208.163 97.8413 208.214 97.8191 208.269 97.8184H280.239C280.293 97.8189 280.344 97.8408 280.383 97.8793C280.421 97.9177 280.442 97.9697 280.442 98.0238C280.442 98.0779 280.421 98.1299 280.383 98.1684C280.344 98.2068 280.293 98.2287 280.239 98.2293Z" fill="#CCCCCC"/>
<path d="M280.239 103.16H208.273C208.218 103.16 208.166 103.139 208.127 103.101C208.088 103.063 208.066 103.011 208.066 102.956C208.065 102.902 208.087 102.85 208.125 102.811C208.163 102.772 208.214 102.75 208.269 102.749H280.239C280.293 102.75 280.344 102.771 280.383 102.81C280.421 102.848 280.442 102.9 280.442 102.954C280.442 103.009 280.421 103.061 280.383 103.099C280.344 103.138 280.293 103.159 280.239 103.16Z" fill="#CCCCCC"/>
<path d="M280.239 108.092H208.273C208.218 108.092 208.166 108.071 208.127 108.032C208.088 107.994 208.066 107.942 208.066 107.888C208.065 107.834 208.087 107.781 208.125 107.742C208.163 107.704 208.214 107.681 208.269 107.681H280.239C280.293 107.681 280.344 107.703 280.383 107.742C280.421 107.78 280.442 107.832 280.442 107.886C280.442 107.94 280.421 107.992 280.383 108.031C280.344 108.069 280.293 108.091 280.239 108.092Z" fill="#CCCCCC"/>
<path d="M280.239 113.022H208.273C208.218 113.023 208.166 113.001 208.127 112.963C208.088 112.925 208.066 112.873 208.066 112.819C208.065 112.764 208.087 112.712 208.125 112.673C208.163 112.634 208.214 112.612 208.269 112.611H280.239C280.293 112.612 280.344 112.634 280.383 112.672C280.421 112.711 280.442 112.763 280.442 112.817C280.442 112.871 280.421 112.923 280.383 112.961C280.344 113 280.293 113.022 280.239 113.022Z" fill="#CCCCCC"/>
<path d="M267.614 63.9241V90.6344H200.645C197.101 90.7577 193.652 89.4688 191.059 87.0513C188.465 84.6339 186.939 81.2859 186.815 77.7439C186.692 74.2019 187.982 70.756 190.401 68.1643C192.82 65.5726 196.171 64.0473 199.715 63.9241C200.025 63.9133 200.335 63.9133 200.645 63.9241H267.614Z" fill="#F2F2F2"/>
<path d="M269.259 90.4289C269.259 90.7013 269.151 90.9625 268.958 91.1552C268.765 91.3478 268.504 91.4561 268.231 91.4562H199.452C195.717 91.4562 192.134 89.9734 189.493 87.3339C186.852 84.6945 185.368 81.1146 185.368 77.3819C185.368 73.6492 186.852 70.0693 189.493 67.4299C192.134 64.7904 195.717 63.3076 199.452 63.3076H268.231C268.366 63.3076 268.5 63.3342 268.625 63.3858C268.749 63.4374 268.863 63.5131 268.958 63.6085C269.054 63.7039 269.129 63.8172 269.181 63.9418C269.233 64.0664 269.259 64.2 269.259 64.3349C269.259 64.4698 269.233 64.6034 269.181 64.7281C269.129 64.8527 269.054 64.966 268.958 65.0614C268.863 65.1568 268.749 65.2324 268.625 65.284C268.5 65.3357 268.366 65.3623 268.231 65.3623H199.452C196.262 65.3623 193.203 66.6286 190.947 68.8827C188.691 71.1369 187.424 74.1941 187.424 77.3819C187.424 80.5697 188.691 83.627 190.947 85.8811C193.203 88.1352 196.262 89.4016 199.452 89.4016H268.231C268.504 89.4017 268.765 89.51 268.958 89.7026C269.151 89.8952 269.259 90.1565 269.259 90.4289Z" fill="#3F3D56"/>
<path d="M267.614 70.0877H195.649C195.594 70.088 195.542 70.0667 195.503 70.0286C195.464 69.9904 195.442 69.9385 195.442 69.8841C195.441 69.8298 195.462 69.7774 195.501 69.7385C195.539 69.6997 195.59 69.6775 195.645 69.6768H267.614C267.669 69.6773 267.72 69.6992 267.759 69.7377C267.797 69.7761 267.818 69.8281 267.818 69.8822C267.818 69.9363 267.797 69.9883 267.759 70.0268C267.72 70.0652 267.669 70.0871 267.614 70.0877Z" fill="#CCCCCC"/>
<path d="M267.614 75.0193H195.649C195.594 75.0196 195.542 74.9984 195.503 74.9602C195.464 74.9221 195.442 74.8701 195.442 74.8158C195.441 74.7614 195.462 74.7091 195.501 74.6702C195.539 74.6313 195.59 74.6091 195.645 74.6084H267.614C267.669 74.6089 267.72 74.6308 267.759 74.6693C267.797 74.7078 267.818 74.7597 267.818 74.8139C267.818 74.868 267.797 74.92 267.759 74.9584C267.72 74.9969 267.669 75.0188 267.614 75.0193Z" fill="#CCCCCC"/>
<path d="M267.614 79.95H195.649C195.594 79.9503 195.542 79.929 195.503 79.8909C195.464 79.8527 195.442 79.8008 195.442 79.7464C195.441 79.6921 195.462 79.6397 195.501 79.6009C195.539 79.562 195.59 79.5398 195.645 79.5391H267.614C267.669 79.5396 267.72 79.5615 267.759 79.6C267.797 79.6384 267.818 79.6904 267.818 79.7445C267.818 79.7987 267.797 79.8506 267.759 79.8891C267.72 79.9276 267.669 79.9494 267.614 79.95Z" fill="#CCCCCC"/>
<path d="M267.614 84.8816H195.649C195.594 84.8819 195.542 84.8607 195.503 84.8225C195.464 84.7843 195.442 84.7324 195.442 84.6781C195.441 84.6237 195.462 84.5714 195.501 84.5325C195.539 84.4936 195.59 84.4714 195.645 84.4707H267.614C267.669 84.4712 267.72 84.4931 267.759 84.5316C267.797 84.5701 267.818 84.622 267.818 84.6762C267.818 84.7303 267.797 84.7822 267.759 84.8207C267.72 84.8592 267.669 84.8811 267.614 84.8816Z" fill="#CCCCCC"/>
<path d="M345.52 214.686V191.397C345.52 190.368 345.11 189.38 344.382 188.653C343.653 187.925 342.665 187.516 341.635 187.516H253.265C252.235 187.516 251.247 187.925 250.519 188.653C249.79 189.38 249.381 190.368 249.381 191.397V214.686H345.52Z" fill="#CCCCCC"/>
<path d="M345.52 223.42H249.381V253.502H345.52V223.42Z" fill="#CCCCCC"/>
<path d="M249.381 262.235V285.524C249.381 286.554 249.79 287.541 250.519 288.269C251.247 288.997 252.235 289.406 253.265 289.406H341.635C342.665 289.406 343.653 288.997 344.382 288.269C345.11 287.541 345.52 286.554 345.52 285.524V262.235H249.381Z" fill="#CCCCCC"/>
<path d="M296.965 204.982C298.574 204.982 299.878 203.679 299.878 202.071C299.878 200.464 298.574 199.16 296.965 199.16C295.356 199.16 294.052 200.464 294.052 202.071C294.052 203.679 295.356 204.982 296.965 204.982Z" fill="white"/>
<path d="M296.965 243.798C298.574 243.798 299.878 242.494 299.878 240.887C299.878 239.279 298.574 237.976 296.965 237.976C295.356 237.976 294.052 239.279 294.052 240.887C294.052 242.494 295.356 243.798 296.965 243.798Z" fill="white"/>
<path d="M297.121 281.791C298.73 281.791 300.034 280.488 300.034 278.88C300.034 277.272 298.73 275.969 297.121 275.969C295.512 275.969 294.208 277.272 294.208 278.88C294.208 280.488 295.512 281.791 297.121 281.791Z" fill="white"/>
<path d="M334.62 160.962V187.672H267.651C264.108 187.793 260.662 186.503 258.07 184.086C255.478 181.669 253.953 178.322 253.83 174.782C253.707 171.242 254.995 167.797 257.412 165.206C259.829 162.614 263.177 161.088 266.72 160.962C267.03 160.951 267.34 160.951 267.651 160.962H334.62Z" fill="#F2F2F2"/>
<path d="M336.265 187.467C336.265 187.739 336.157 188.001 335.964 188.193C335.771 188.386 335.51 188.494 335.237 188.494H266.458C262.724 188.495 259.142 187.014 256.5 184.376C253.858 181.739 252.372 178.16 252.37 174.428C252.368 170.697 253.849 167.117 256.488 164.476C259.126 161.835 262.707 160.349 266.441 160.346H335.237C335.372 160.345 335.506 160.372 335.631 160.423C335.756 160.475 335.87 160.55 335.966 160.646C336.062 160.741 336.138 160.854 336.189 160.979C336.241 161.104 336.268 161.238 336.268 161.373C336.268 161.508 336.241 161.642 336.189 161.767C336.138 161.892 336.062 162.005 335.966 162.1C335.87 162.196 335.756 162.271 335.631 162.323C335.506 162.374 335.372 162.401 335.237 162.4H266.458C263.271 162.405 260.215 163.673 257.963 165.926C255.711 168.18 254.446 171.235 254.446 174.42C254.446 177.605 255.711 180.66 257.963 182.914C260.215 185.167 263.271 186.435 266.458 186.44H335.237C335.51 186.44 335.771 186.548 335.964 186.741C336.157 186.933 336.265 187.195 336.265 187.467Z" fill="#3F3D56"/>
<path d="M334.62 167.126H262.654C262.6 167.126 262.548 167.105 262.509 167.067C262.47 167.028 262.448 166.977 262.448 166.922C262.447 166.868 262.468 166.815 262.506 166.777C262.544 166.738 262.596 166.716 262.651 166.715H334.62C334.675 166.715 334.726 166.737 334.764 166.776C334.803 166.814 334.824 166.866 334.824 166.92C334.824 166.974 334.803 167.026 334.764 167.065C334.726 167.103 334.674 167.125 334.62 167.126Z" fill="#CCCCCC"/>
<path d="M334.62 172.056H262.654C262.6 172.057 262.548 172.035 262.509 171.997C262.47 171.959 262.448 171.907 262.448 171.853C262.447 171.799 262.468 171.746 262.506 171.707C262.544 171.668 262.596 171.646 262.651 171.646H334.62C334.675 171.646 334.726 171.668 334.764 171.706C334.803 171.745 334.824 171.797 334.824 171.851C334.824 171.905 334.803 171.957 334.764 171.996C334.726 172.034 334.674 172.056 334.62 172.056Z" fill="#CCCCCC"/>
<path d="M334.62 176.988H262.654C262.6 176.988 262.548 176.967 262.509 176.929C262.47 176.891 262.448 176.839 262.448 176.784C262.447 176.73 262.468 176.678 262.506 176.639C262.544 176.6 262.596 176.578 262.651 176.577H334.62C334.675 176.578 334.726 176.6 334.764 176.638C334.803 176.677 334.824 176.728 334.824 176.783C334.824 176.837 334.803 176.889 334.764 176.927C334.726 176.966 334.674 176.988 334.62 176.988Z" fill="#CCCCCC"/>
<path d="M334.62 181.919H262.654C262.6 181.919 262.548 181.898 262.509 181.86C262.47 181.821 262.448 181.77 262.448 181.715C262.447 181.661 262.468 181.608 262.506 181.57C262.544 181.531 262.596 181.509 262.651 181.508H334.62C334.675 181.508 334.726 181.53 334.764 181.569C334.803 181.607 334.824 181.659 334.824 181.713C334.824 181.767 334.803 181.819 334.764 181.858C334.726 181.896 334.674 181.918 334.62 181.919Z" fill="#CCCCCC"/>
<path d="M255.969 55.0134H225.457C225.167 55.0132 224.882 55.0796 224.622 55.2075L216.921 59.0599C216.667 59.1675 216.451 59.3473 216.299 59.5768C216.147 59.8062 216.066 60.0753 216.066 60.3505C216.066 60.6256 216.147 60.8947 216.299 61.1242C216.451 61.3537 216.667 61.5334 216.921 61.641L224.622 65.4934C224.882 65.6213 225.167 65.6878 225.457 65.6875H255.969C256.389 65.7118 256.802 65.5696 257.119 65.2917C257.435 65.0138 257.629 64.6226 257.659 64.2028V56.4981C257.629 56.0783 257.435 55.6871 257.119 55.4092C256.802 55.1313 256.389 54.9891 255.969 55.0134Z" fill="#3F3D56"/>
<path d="M257.658 56.4981V64.2029C257.629 64.6227 257.435 65.0139 257.118 65.2918C256.802 65.5697 256.389 65.7119 255.968 65.6876H249.89V55.0134H255.968C256.389 54.9891 256.802 55.1313 257.118 55.4092C257.435 55.6871 257.629 56.0783 257.658 56.4981Z" fill="#35BA98"/>
<path d="M73.0403 205.985C76.9691 207.365 81.1874 207.711 85.2888 206.989C89.3901 206.267 93.2363 204.502 96.4568 201.863C104.658 194.984 107.23 183.652 109.322 173.158C111.385 162.812 113.448 152.466 115.511 142.12L102.554 151.035C93.2367 157.446 83.7091 164.062 77.2576 173.348C70.8061 182.635 67.99 195.311 73.1735 205.359" fill="#E6E6E6"/>
<path d="M74.1482 243.563C72.8368 234.018 71.4884 224.35 72.4082 214.703C73.2252 206.135 75.8411 197.766 81.1667 190.905C83.9936 187.27 87.4333 184.155 91.3312 181.701C92.3477 181.06 93.2832 182.669 92.2712 183.308C85.5266 187.567 80.3099 193.857 77.3732 201.27C74.1297 209.514 73.6089 218.5 74.1678 227.257C74.5058 232.553 75.2222 237.814 75.9441 243.068C76.001 243.306 75.9655 243.556 75.8447 243.769C75.724 243.981 75.5271 244.14 75.2937 244.213C75.0556 244.277 74.8018 244.245 74.5874 244.123C74.3729 244.001 74.2151 243.8 74.1482 243.563Z" fill="#F2F2F2"/>
<path d="M86.7793 226.673C88.4643 229.232 90.7805 231.314 93.5046 232.719C96.2288 234.124 99.2691 234.804 102.333 234.694C110.206 234.321 116.77 228.83 122.679 223.616L140.156 208.197L128.589 207.644C120.271 207.246 111.738 206.875 103.815 209.438C95.8924 212.002 88.5856 218.17 87.1369 226.365" fill="#E6E6E6"/>
<path d="M70.4419 249.05C76.7538 237.89 84.0751 225.486 97.1569 221.522C100.794 220.423 104.608 220.03 108.394 220.363C109.587 220.465 109.289 222.303 108.098 222.2C101.753 221.674 95.4202 223.348 90.1658 226.941C85.1097 230.38 81.1729 235.161 77.8408 240.232C75.7999 243.337 73.9717 246.575 72.1431 249.808C71.5588 250.841 69.8507 250.095 70.4419 249.05Z" fill="#F2F2F2"/>
<path d="M60.3287 260.797C60.5414 258.334 61.4261 255.977 62.8866 253.983C64.3471 251.988 66.3273 250.432 68.6116 249.484V243.032H79.441V249.687C81.6128 250.682 83.4819 252.234 84.8578 254.186C86.2336 256.137 87.0669 258.418 87.2728 260.797L89.8193 290.376H57.7822L60.3287 260.797Z" fill="#F2F2F2"/>
<path d="M428.616 119.564L425.395 118.208L423.185 102.07H393.755L391.36 118.142L388.477 119.582C388.34 119.651 388.229 119.764 388.164 119.904C388.098 120.044 388.082 120.201 388.117 120.351C388.153 120.501 388.238 120.635 388.359 120.73C388.48 120.826 388.629 120.878 388.784 120.878H428.351C428.509 120.878 428.662 120.823 428.784 120.723C428.907 120.623 428.991 120.484 429.022 120.329C429.053 120.174 429.03 120.014 428.956 119.874C428.882 119.735 428.762 119.625 428.616 119.564Z" fill="#E6E6E6"/>
<path d="M480.916 104.217H336.348C335.589 104.216 334.863 103.913 334.327 103.377C333.791 102.84 333.49 102.113 333.49 101.355V80.9844H483.773V101.355C483.773 102.113 483.472 102.84 482.937 103.377C482.401 103.913 481.674 104.215 480.916 104.217Z" fill="#CCCCCC"/>
<path d="M483.924 90.6124H333.358V3.4501C333.359 2.53538 333.724 1.65843 334.371 1.01164C335.018 0.364845 335.896 0.00102351 336.811 0H480.472C481.387 0.0010235 482.265 0.364846 482.912 1.01164C483.559 1.65843 483.923 2.53538 483.924 3.4501L483.924 90.6124Z" fill="#3F3D56"/>
<path d="M474.931 84.2863H342.351C341.645 84.2855 340.968 84.005 340.469 83.5064C339.97 83.0077 339.69 82.3317 339.689 81.6265V8.98613C339.69 8.28092 339.97 7.60481 340.469 7.10615C340.968 6.60748 341.645 6.32698 342.351 6.32617H474.931C475.637 6.32698 476.314 6.60748 476.813 7.10615C477.312 7.60481 477.593 8.28092 477.593 8.98613V81.6265C477.593 82.3317 477.312 83.0077 476.813 83.5064C476.314 84.005 475.637 84.2855 474.931 84.2863Z" fill="white"/>
<path d="M440.012 109.918C440.868 109.128 441.887 108.535 442.997 108.181C444.107 107.827 445.281 107.72 446.437 107.869C447.593 108.017 448.702 108.417 449.686 109.041C450.671 109.664 451.506 110.495 452.134 111.476L470.067 108.29L474.663 118.707L449.275 122.851C447.556 123.796 445.55 124.078 443.637 123.644C441.723 123.21 440.036 122.09 438.894 120.495C437.753 118.901 437.236 116.944 437.442 114.994C437.648 113.045 438.562 111.238 440.012 109.918Z" fill="#FFB6B6"/>
<path d="M456.615 123.219L475.311 122.986L477.677 122.954L515.714 122.475C515.714 122.475 526.044 112.628 535.038 102.49L533.777 93.3788C532.548 84.4367 528.108 76.2457 521.286 70.3301C508.404 78.9313 500.934 95.9564 500.934 95.9564L477.349 101.593L474.99 102.157L460.336 105.656L456.615 123.219Z" fill="#35BA98"/>
<path d="M552.32 179.222H517.423C517.423 180.716 479.275 181.929 479.275 181.929C478.433 182.562 477.666 183.288 476.988 184.094C474.952 186.521 473.839 189.589 473.846 192.756V194.921C473.847 198.511 475.274 201.952 477.814 204.49C480.354 207.028 483.798 208.454 487.39 208.456H552.32C555.911 208.453 559.355 207.026 561.894 204.488C564.433 201.951 565.861 198.51 565.865 194.921V192.756C565.86 189.168 564.431 185.728 561.892 183.191C559.353 180.654 555.911 179.227 552.32 179.222Z" fill="#E4E4E4"/>
<path d="M526.943 207.919H512.856V289.164H526.943V207.919Z" fill="#E4E4E4"/>
<path d="M472.765 288.669C472.765 290.19 494.11 289.257 520.441 289.257C546.772 289.257 568.117 290.19 568.117 288.669C568.117 287.148 546.772 275.088 520.441 275.088C494.11 275.088 472.765 287.148 472.765 288.669Z" fill="#E4E4E4"/>
<path d="M463.303 279.386L452.819 279.386L447.832 238.979L463.304 238.98L463.303 279.386Z" fill="#FFB6B6"/>
<path d="M465.976 289.54L432.173 289.539V289.112C432.174 285.625 433.56 282.281 436.027 279.816C438.495 277.35 441.841 275.965 445.33 275.965H445.331L465.977 275.966L465.976 289.54Z" fill="#2F2E41"/>
<path d="M432.318 279.386L421.835 279.386L416.848 238.979L432.32 238.98L432.318 279.386Z" fill="#FFB6B6"/>
<path d="M434.992 289.54L401.188 289.539V289.112C401.189 285.625 402.575 282.281 405.042 279.816C407.51 277.35 410.856 275.965 414.346 275.965H414.346L434.992 275.966L434.992 289.54Z" fill="#2F2E41"/>
<path d="M526.226 46.7636C536.293 46.7636 544.454 38.6088 544.454 28.5493C544.454 18.4898 536.293 10.335 526.226 10.335C516.159 10.335 507.999 18.4898 507.999 28.5493C507.999 38.6088 516.159 46.7636 526.226 46.7636Z" fill="#FFB6B6"/>
<path d="M555.728 153.346C555.728 153.346 561.844 185.662 538.573 189.778C515.303 193.893 481.712 196.785 481.712 196.785L466.627 267.113L446.361 265.305C446.361 265.305 449.056 180.646 455.684 174.023C462.313 167.399 504.206 147.567 504.206 147.567L555.728 153.346Z" fill="#2F2E41"/>
<path d="M510.28 139.803L500.102 150.005C500.102 150.005 426.616 161.833 423.781 178.793C419.501 204.399 414.445 260.082 414.445 260.082L436.54 258.426L445.204 195.13L480.555 187.095L520.774 165.192L510.28 139.803Z" fill="#2F2E41"/>
<path d="M543.767 17.6762C541.967 14.2838 539.681 7.52279 536.049 6.26888C534.033 5.60062 531.948 5.15688 529.834 4.94572L523.661 7.31822L527.02 4.70716C526.366 4.66822 525.712 4.63639 525.059 4.61166L520.894 6.21239L523.025 4.55627C519.142 4.51645 515.134 4.91989 512.125 7.28197C509.56 9.29565 507.019 16.9239 506.608 20.1573C506.168 23.2505 506.322 26.399 507.061 29.4349L508.116 30.4371C508.485 29.5917 508.762 28.7093 508.943 27.8049C509.321 26.1151 510.048 24.5225 511.076 23.1287C512.104 21.7349 513.411 20.5705 514.915 19.7095L514.972 19.6772C516.741 18.6822 518.888 18.7281 520.917 18.8011L530.552 19.1475C532.87 19.2309 535.366 19.3774 537.173 20.8305C538.322 21.9023 539.225 23.2097 539.821 24.6629C540.719 26.4741 542.474 33.3053 542.474 33.3053C542.474 33.3053 543.467 32.0158 543.942 32.9755C544.706 30.4715 545.169 27.886 545.325 25.273C545.476 22.6484 544.939 20.0296 543.767 17.6762Z" fill="#2F2E41"/>
<path d="M607.52 36.5482C606.357 36.6247 605.225 36.9551 604.204 37.516C603.183 38.0768 602.297 38.8546 601.61 39.7946C600.922 40.7345 600.449 41.8137 600.223 42.9561C599.998 44.0985 600.026 45.2764 600.306 46.4068L585.648 57.2112L590.046 67.7135L610.531 52.1651C612.401 51.5699 613.986 50.3102 614.988 48.6247C615.99 46.9392 616.339 44.945 615.967 43.0201C615.596 41.0951 614.531 39.373 612.974 38.1802C611.417 36.9874 609.477 36.4068 607.52 36.5482Z" fill="#FFB6B6"/>
<path d="M605.161 58.6049L568.415 99.385C568.415 99.385 550.842 93.7638 537.252 87.6694L531.146 68.9314C529.729 64.5844 529.124 60.0138 529.361 55.4479C548.201 50.4384 570.115 69.0782 570.115 69.0782L597.621 47.5488L605.161 58.6049Z" fill="#35BA98"/>
<path d="M519.418 156.359C512.863 154.096 506.084 151.756 498.772 150.877L498.458 150.84L498.544 150.536C506.113 123.979 504.224 106.991 500.515 81.4724C499.726 75.968 500.74 70.3564 503.405 65.475C506.069 60.5936 510.242 56.7042 515.301 54.3873L515.346 54.367L536.23 53.041L536.277 53.0381L551.465 57.5018C553.65 58.1487 555.563 59.4935 556.909 61.3303C558.256 63.167 558.963 65.3944 558.922 67.6711C558.758 76.0634 559.107 85.4331 559.476 95.3526C560.305 117.607 561.162 140.619 556.299 155.549L556.273 155.628L556.208 155.678C551.738 159.317 546.136 161.283 540.371 161.238C533.553 161.238 526.596 158.836 519.418 156.359Z" fill="#35BA98"/>
</g>
<defs>
<clipPath id="clip0_102_270">
<rect width="672" height="291.3" fill="white"/>
</clipPath>
</defs>
</svg>
