<svg width="387" height="255" viewBox="0 0 387 255" fill="none" xmlns="http://www.w3.org/2000/svg">
<g clip-path="url(#clip0_369_383)">
<path d="M252.573 111.118C252.127 113.46 251.592 115.779 250.969 118.073C250.901 118.34 250.825 118.602 250.75 118.869H242.074C241.335 118.869 240.627 119.163 240.104 119.685C239.582 120.207 239.288 120.914 239.287 121.652V146.357C239.024 146.846 238.758 147.331 238.491 147.817C237.113 150.322 235.68 152.8 234.215 155.246C210.323 194.997 177.001 228.262 137.19 252.104L139.547 246.79C138.683 246.731 137.816 246.671 136.952 246.611C118.139 245.327 99.263 243.903 80.8924 239.68C61.6739 235.261 42.8735 227.598 27.8116 214.892C12.7456 202.181 1.70116 184.031 0.168258 164.393C-0.342884 157.643 0.340472 150.857 2.18698 144.345C5.7184 131.81 13.4346 120.531 24.5668 113.858C42.0534 103.379 64.8632 105.514 83.2973 114.232C101.727 122.945 116.73 137.369 131.378 151.543C116.588 126.211 95.9971 104.742 71.2932 88.8985C63.1073 83.6648 54.4198 79.0039 47.4602 72.2232C40.5045 65.4465 35.3723 55.9457 36.6028 46.3175C38.0002 35.3969 46.9546 27.109 55.9247 20.7181C59.508 18.1649 63.2068 15.7429 67.0211 13.5158C77.7829 7.2164 89.4248 2.46397 101.72 0.70219C118.374 -1.68794 136.362 1.93902 149.131 12.8835C163.516 25.216 169.416 45.1046 168.855 64.1302C177.718 51.2608 191.386 41.41 206.822 40.9924C222.848 40.5629 238.081 50.6762 246.107 64.5398C254.13 78.3994 255.571 95.3888 252.573 111.118Z" fill="#063941"/>
<path d="M151.182 164.566C160.568 163.74 169.238 162.776 178.334 160.205C187.15 157.713 195.634 153.541 201.91 146.73C208.66 139.404 212.304 129.89 214.875 120.418C216.309 115.138 217.487 109.783 218.598 104.427C219.804 98.6156 220.875 92.7784 221.812 86.9154C223.677 75.2451 225.009 63.5061 225.807 51.6983C225.903 50.265 225.992 48.8312 226.072 47.3969C226.122 46.5121 224.744 46.5149 224.694 47.3969C224.039 59.036 222.86 70.6297 221.157 82.1781C219.476 93.5243 217.326 104.821 214.598 115.964C212.287 125.404 209.295 134.991 203.368 142.849C197.81 150.218 189.783 155.034 181.115 157.913C172.295 160.842 162.995 162.012 153.779 162.882C152.648 162.989 152.313 163.09 151.182 163.19C150.305 163.267 150.297 164.644 151.182 164.566Z" fill="#30BBA9"/>
<path d="M2.98173 145.36C14.8241 146.016 26.5459 148.079 37.8995 151.506C49.2579 154.925 60.173 159.671 70.4186 165.644C80.3185 171.421 89.5089 178.333 97.8031 186.239C105.853 193.917 113.027 202.462 119.194 211.716C125.39 220.994 130.525 230.937 134.502 241.357C134.987 242.633 135.454 243.915 135.903 245.203C136.193 246.034 137.525 245.677 137.232 244.838C133.511 234.197 128.605 224.007 122.608 214.459C116.612 204.91 109.575 196.055 101.626 188.056C93.5492 179.932 84.5605 172.767 74.8383 166.703C54.4249 154.001 31.2864 146.317 7.3229 144.282C5.87738 144.161 4.43033 144.062 2.98175 143.984C2.09587 143.935 2.09858 145.311 2.98173 145.36Z" fill="#30BBA9"/>
<path d="M67.394 15.1286C74.9658 17.534 82.1428 21.0371 88.6953 25.526C95.391 30.1441 101.497 35.5609 106.88 41.6564C112.551 48.0687 117.594 55.0099 121.937 62.3846C126.545 70.1712 130.547 78.2995 133.91 86.6977C137.372 95.3199 140.284 104.152 142.628 113.142C145.011 122.239 146.873 131.464 148.203 140.772C149.527 149.982 150.329 159.259 150.603 168.559C150.88 177.451 150.617 186.353 149.815 195.214C149.082 203.481 147.743 211.683 145.809 219.754C144.091 227.044 141.67 234.15 138.58 240.973C137.864 242.522 137.105 244.049 136.302 245.555C135.885 246.336 137.074 247.032 137.492 246.25C140.906 239.732 143.633 232.877 145.627 225.796C147.865 217.914 149.487 209.87 150.479 201.736C151.578 192.912 152.114 184.027 152.082 175.135C152.062 165.793 151.505 156.46 150.414 147.182C149.323 137.788 147.703 128.463 145.561 119.251C143.425 110.024 140.714 100.939 137.446 92.0493C134.297 83.4431 130.525 75.0768 126.162 67.0164C122.007 59.3247 117.164 52.0238 111.693 45.2025C106.497 38.7078 100.566 32.8363 94.0169 27.7056C87.7019 22.7731 80.7237 18.7524 73.2873 15.7618C71.4701 15.0394 69.6277 14.386 67.7602 13.8017C66.9125 13.5353 66.5498 14.8633 67.394 15.1286Z" fill="#30BBA9"/>
<path d="M149.108 254.482C203.53 254.482 247.649 252.702 247.649 250.505C247.649 248.309 203.53 246.528 149.108 246.528C94.6848 246.528 50.5664 248.309 50.5664 250.505C50.5664 252.702 94.6848 254.482 149.108 254.482Z" fill="#063941"/>
<path d="M236.17 125.943C236.122 126.158 236.09 126.376 236.075 126.595L218.972 136.451L214.815 134.061L210.383 139.856L219.276 146.187L238.789 130.811C239.584 131.106 240.451 131.151 241.273 130.941C242.095 130.731 242.834 130.276 243.391 129.637C243.948 128.998 244.297 128.204 244.392 127.362C244.486 126.519 244.322 125.668 243.92 124.921C243.519 124.175 242.899 123.568 242.144 123.182C241.388 122.795 240.533 122.648 239.692 122.759C238.851 122.869 238.063 123.234 237.434 123.802C236.805 124.371 236.364 125.118 236.17 125.943Z" fill="#D29A9A"/>
<path d="M197.218 131.99L210.685 141.577L216.708 134.034L203.617 123.542C203.054 123.091 202.404 122.759 201.708 122.567C201.012 122.375 200.284 122.327 199.569 122.426C198.854 122.525 198.166 122.769 197.549 123.143C196.931 123.516 196.396 124.012 195.977 124.599C195.161 125.744 194.833 127.165 195.065 128.551C195.298 129.937 196.072 131.174 197.218 131.99Z" fill="#30BBA9"/>
<path d="M169.418 241.382L174.14 242.618L181.159 225.015L174.191 223.19L169.418 241.382Z" fill="#D29A9A"/>
<path d="M182.098 249.381L167.258 245.497L168.76 239.77L177.866 242.153C179.387 242.551 180.687 243.536 181.481 244.892C182.274 246.247 182.496 247.862 182.098 249.381Z" fill="#2F2E41"/>
<path d="M211.393 244.74L216.198 243.883L215.174 224.962L208.082 226.227L211.393 244.74Z" fill="#D29A9A"/>
<path d="M226.262 246.687L211.16 249.381L210.118 243.553L219.385 241.899C220.151 241.763 220.937 241.778 221.697 241.945C222.457 242.111 223.177 242.426 223.816 242.87C224.454 243.315 224.999 243.881 225.419 244.535C225.838 245.19 226.125 245.921 226.262 246.687Z" fill="#2F2E41"/>
<path d="M201.932 105.591C203.116 105.879 204.079 107.084 204.658 108.48C205.191 109.947 205.553 111.47 205.734 113.02C206.189 115.906 206.625 119.03 205.685 121.703C204.583 124.835 201.647 126.476 199.1 125.705C196.553 124.934 194.528 122.04 193.836 118.708C193.206 115.342 193.612 111.864 195 108.732C195.724 107.087 196.721 105.569 198.046 104.827C198.696 104.434 199.471 104.302 200.215 104.457C200.958 104.611 201.616 105.042 202.055 105.661" fill="#2F2E41"/>
<path d="M208.631 157.843L217.779 239.686L210.223 242.551L196.288 187.67L176.887 237.85L168.617 238.309C168.617 238.309 179.964 160.229 188.374 158.454L208.631 157.843Z" fill="#2F2E41"/>
<path d="M200.947 116.035C206.348 116.035 210.726 111.662 210.726 106.268C210.726 100.873 206.348 96.5 200.947 96.5C195.546 96.5 191.168 100.873 191.168 106.268C191.168 111.662 195.546 116.035 200.947 116.035Z" fill="#D29A9A"/>
<path d="M205.143 120.134L194.575 118.757C194.575 118.757 187.683 127.018 188.143 141.245C188.602 155.471 186.994 159.831 186.994 159.831L209.028 160.229C205.843 155.854 219.165 130.729 205.143 120.134Z" fill="#30BBA9"/>
<path d="M210.82 162.217C210.6 162.219 210.38 162.237 210.163 162.274L196.644 147.899L198.022 143.309L191.36 140.326L187.225 150.423L206.675 165.877C206.57 166.718 206.725 167.571 207.117 168.322C207.51 169.074 208.122 169.688 208.873 170.083C209.623 170.479 210.477 170.636 211.319 170.535C212.162 170.435 212.954 170.08 213.589 169.519C214.225 168.957 214.675 168.216 214.879 167.393C215.082 166.57 215.03 165.705 214.73 164.912C214.429 164.12 213.894 163.437 213.196 162.956C212.497 162.474 211.669 162.217 210.82 162.217Z" fill="#D29A9A"/>
<path d="M196.014 125.726L189.752 141.015L198.482 145.145L205.711 130.015C206.022 129.364 206.197 128.656 206.225 127.936C206.252 127.215 206.132 126.496 205.872 125.823C205.612 125.15 205.217 124.538 204.712 124.023C204.206 123.508 203.601 123.101 202.932 122.828C202.287 122.565 201.597 122.431 200.9 122.434C200.204 122.437 199.514 122.577 198.872 122.846C198.23 123.115 197.646 123.508 197.156 124.002C196.666 124.496 196.277 125.082 196.014 125.726Z" fill="#30BBA9"/>
<path d="M198.388 115.148C199.92 114.265 200.083 112.135 199.875 110.38C199.667 108.625 199.319 106.669 200.352 105.235C201.584 103.523 204.06 103.488 206.17 103.433C208.281 103.377 210.851 102.759 211.398 100.723C211.759 99.3766 210.986 97.9324 209.877 97.0875C208.767 96.2427 207.379 95.8692 206.03 95.5142C203.013 94.7202 199.897 93.9194 196.807 94.3558C193.746 94.7881 190.979 96.4066 189.104 98.8612C187.229 101.316 186.397 104.409 186.788 107.472C187.289 111.389 188.014 113.1 187.538 114.828C186.651 118.045 182.827 120.112 182.751 123.448C182.692 126.058 184.999 128.071 187.251 129.396C189.037 130.447 190.964 131.339 193.022 131.585C195.081 131.831 197.296 131.36 198.83 129.967C200.807 128.169 201.296 125.167 200.729 122.557C200.162 119.948 198.708 117.63 197.269 115.379" fill="#2F2E41"/>
<path d="M383.417 118.073H242.076C241.126 118.075 240.215 118.452 239.543 119.123C238.872 119.794 238.494 120.704 238.492 121.652V212.326C238.494 213.275 238.872 214.185 239.543 214.856C240.215 215.527 241.126 215.904 242.076 215.906H383.417C384.367 215.904 385.278 215.527 385.95 214.856C386.621 214.185 386.999 213.275 387.001 212.326V121.652C386.999 120.704 386.621 119.794 385.95 119.123C385.278 118.452 384.367 118.075 383.417 118.073ZM386.205 212.326C386.204 213.064 385.91 213.772 385.387 214.294C384.865 214.816 384.156 215.109 383.417 215.11H242.076C241.337 215.109 240.628 214.816 240.106 214.294C239.583 213.772 239.289 213.064 239.288 212.326V121.652C239.289 120.914 239.583 120.207 240.106 119.685C240.628 119.163 241.337 118.869 242.076 118.869H383.417C384.156 118.869 384.865 119.163 385.387 119.685C385.91 120.207 386.204 120.914 386.205 121.652V212.326Z" fill="#3F3D56"/>
<path d="M272.245 163.209H249.949C249.051 163.208 248.191 162.852 247.557 162.218C246.922 161.584 246.566 160.725 246.564 159.829V137.558C246.566 136.662 246.922 135.803 247.557 135.169C248.191 134.535 249.051 134.179 249.949 134.178H272.245C273.142 134.179 274.002 134.535 274.637 135.169C275.271 135.803 275.628 136.662 275.629 137.558V159.829C275.628 160.725 275.271 161.584 274.637 162.218C274.002 162.852 273.142 163.208 272.245 163.209Z" fill="#30BBA9"/>
<path d="M376.056 186.876H249.445C248.759 186.876 248.101 186.604 247.615 186.119C247.13 185.634 246.857 184.977 246.857 184.291C246.857 183.605 247.13 182.948 247.615 182.463C248.101 181.978 248.759 181.706 249.445 181.706H376.056C376.742 181.706 377.401 181.978 377.886 182.463C378.371 182.948 378.644 183.605 378.644 184.291C378.644 184.977 378.371 185.634 377.886 186.119C377.401 186.604 376.742 186.876 376.056 186.876Z" fill="#2F2E41" fill-opacity="0.44"/>
<path d="M376.14 174.349H249.529C248.843 174.349 248.185 174.076 247.699 173.592C247.214 173.107 246.941 172.449 246.941 171.764C246.941 171.078 247.214 170.421 247.699 169.936C248.185 169.451 248.843 169.179 249.529 169.179H376.14C376.826 169.179 377.485 169.451 377.97 169.936C378.455 170.421 378.728 171.078 378.728 171.764C378.728 172.449 378.455 173.107 377.97 173.592C377.485 174.076 376.826 174.349 376.14 174.349Z" fill="#2F2E41" fill-opacity="0.44"/>
<path d="M313.631 157.244H294.918C294.232 157.244 293.573 156.972 293.088 156.487C292.603 156.002 292.33 155.345 292.33 154.659C292.33 153.974 292.603 153.316 293.088 152.831C293.573 152.347 294.232 152.074 294.918 152.074H313.631C314.317 152.074 314.976 152.347 315.461 152.831C315.946 153.316 316.219 153.974 316.219 154.659C316.219 155.345 315.946 156.002 315.461 156.487C314.976 156.972 314.317 157.244 313.631 157.244Z" fill="#2F2E41" fill-opacity="0.44"/>
<path d="M376.14 144.522H294.918C294.232 144.522 293.573 144.249 293.088 143.764C292.603 143.28 292.33 142.622 292.33 141.937C292.33 141.251 292.603 140.593 293.088 140.109C293.573 139.624 294.232 139.352 294.918 139.352H376.14C376.826 139.352 377.485 139.624 377.97 140.109C378.455 140.593 378.728 141.251 378.728 141.937C378.728 142.622 378.455 143.28 377.97 143.764C377.485 144.249 376.826 144.522 376.14 144.522Z" fill="#2F2E41" fill-opacity="0.44"/>
<path d="M310.447 199.602H249.445C248.759 199.602 248.101 199.329 247.615 198.845C247.13 198.36 246.857 197.702 246.857 197.017C246.857 196.331 247.13 195.674 247.615 195.189C248.101 194.704 248.759 194.432 249.445 194.432H310.447C311.133 194.432 311.791 194.704 312.277 195.189C312.762 195.674 313.035 196.331 313.035 197.017C313.035 197.702 312.762 198.36 312.277 198.845C311.791 199.329 311.133 199.602 310.447 199.602Z" fill="#2F2E41" fill-opacity="0.44"/>
</g>
<defs>
<clipPath id="clip0_369_383">
<rect width="387" height="254.482" fill="white"/>
</clipPath>
</defs>
</svg>
