<svg width="512" height="403" viewBox="0 0 512 403" fill="none" xmlns="http://www.w3.org/2000/svg">
<g style="mix-blend-mode:multiply" clip-path="url(#clip0_64_1439)">
<path d="M134.292 181.879C133.165 181.879 132.249 182.795 132.249 183.922V200.267C132.249 201.394 133.165 202.31 134.292 202.31C135.419 202.31 136.336 201.394 136.336 200.267V183.922C136.336 182.795 135.419 181.879 134.292 181.879Z" fill="#3F3D56"/>
<path d="M366.739 0H182.915C162.069 0 145.17 16.8952 145.17 37.7365V362.498C145.17 383.339 162.069 400.235 182.914 400.235H366.739C387.585 400.235 404.484 383.339 404.484 362.498V37.7365C404.484 16.8952 387.585 0 366.739 0Z" fill="white"/>
<path d="M366.739 403H182.915C161.609 403 144.276 385.671 144.276 364.37V39.6086C144.276 18.3081 161.609 0.978516 182.915 0.978516H366.739C388.044 0.978516 405.377 18.3081 405.377 39.6086V364.37C405.377 385.671 388.044 403 366.739 403ZM182.915 2.76571C162.595 2.76571 146.064 19.2933 146.064 39.6086V364.37C146.064 384.685 162.595 401.213 182.915 401.213H366.739C387.059 401.213 403.59 384.685 403.59 364.37V39.6086C403.59 19.2933 387.059 2.76571 366.739 2.76571H182.915Z" fill="#3F3D56"/>
<path d="M380.054 79.1334H306.167C303.033 79.1334 300.483 76.5842 300.483 73.451C300.483 70.3177 303.033 67.7686 306.167 67.7686H380.054C383.188 67.7686 385.738 70.3177 385.738 73.451C385.738 76.5842 383.188 79.1334 380.054 79.1334Z" fill="#E6E6E6"/>
<path d="M310.738 123.82H238.916C237.105 123.82 235.632 122.347 235.632 120.537C235.632 118.726 237.105 117.254 238.916 117.254H310.738C312.549 117.254 314.021 118.726 314.021 120.537C314.021 122.347 312.549 123.82 310.738 123.82Z" fill="#087466"/>
<path d="M209.308 14.0771H168.136C168.029 14.0771 167.943 14.1638 167.943 14.2707V19.2105C167.943 19.3175 168.029 19.4041 168.136 19.4041H209.308C209.415 19.4041 209.502 19.3175 209.502 19.2105V14.2707C209.502 14.1638 209.415 14.0771 209.308 14.0771Z" fill="#E6E6E6"/>
<path d="M347.342 19.404C349.697 19.404 351.605 17.496 351.605 15.1424C351.605 12.7888 349.697 10.8809 347.342 10.8809C344.988 10.8809 343.08 12.7888 343.08 15.1424C343.08 17.496 344.988 19.404 347.342 19.404Z" fill="#E6E6E6"/>
<path d="M359.064 19.404C361.418 19.404 363.327 17.496 363.327 15.1424C363.327 12.7888 361.418 10.8809 359.064 10.8809C356.71 10.8809 354.802 12.7888 354.802 15.1424C354.802 17.496 356.71 19.404 359.064 19.404Z" fill="#E6E6E6"/>
<path d="M370.786 19.404C373.14 19.404 375.049 17.496 375.049 15.1424C375.049 12.7888 373.14 10.8809 370.786 10.8809C368.432 10.8809 366.524 12.7888 366.524 15.1424C366.524 17.496 368.432 19.404 370.786 19.404Z" fill="#E6E6E6"/>
<path d="M182.467 141.394C182.467 141.984 182.941 142.458 183.531 142.458H366.123C366.713 142.458 367.186 141.984 367.186 141.394C367.186 140.805 366.713 140.331 366.123 140.331H183.531C182.941 140.331 182.467 140.805 182.467 141.394Z" fill="#3F3D56"/>
<path d="M327.281 291.794C327.281 292.384 327.754 292.857 328.344 292.857H510.936C511.526 292.857 512 292.384 512 291.794C512 291.204 511.526 290.73 510.936 290.73H328.344C327.754 290.73 327.281 291.204 327.281 291.794Z" fill="#3F3D56"/>
<path d="M348.613 224.973H239.036C237.226 224.973 235.752 223.5 235.752 221.69C235.752 219.88 237.226 218.407 239.036 218.407H348.613C350.424 218.407 351.896 219.88 351.896 221.69C351.896 223.5 350.424 224.973 348.613 224.973Z" fill="#087466"/>
<path d="M205.801 229.327C210.244 229.327 213.845 225.726 213.845 221.285C213.845 216.843 210.244 213.242 205.801 213.242C201.359 213.242 197.757 216.843 197.757 221.285C197.757 225.726 201.359 229.327 205.801 229.327Z" fill="#087466"/>
<path d="M204.907 234.688V232.901C211.561 232.901 216.974 227.489 216.974 220.837C216.974 214.185 211.561 208.774 204.907 208.774V206.986C212.547 206.986 218.761 213.2 218.761 220.837C218.761 228.475 212.547 234.688 204.907 234.688Z" fill="#3F3D56"/>
<path d="M109.098 188.85C112.379 185.511 116.762 184.498 118.886 186.586C121.011 188.674 120.073 193.072 116.79 196.412C115.497 197.764 113.899 198.786 112.13 199.394L98.0483 213.364L91.6321 206.618L106.195 193.562C106.772 191.782 107.768 190.166 109.098 188.85Z" fill="#FFB6B6"/>
<path d="M64.063 177.319L78.8272 210.065L102.403 197.306L110.841 201.783C110.841 201.783 91.5679 233.997 78.3716 230.33C65.1754 226.663 41.7424 193.412 45.9644 183.15C50.1865 172.887 64.063 177.319 64.063 177.319Z" fill="#E6E6E6"/>
<path d="M0 401.904C0 402.316 0.330843 402.646 0.742832 402.646H455.963C456.375 402.646 456.706 402.316 456.706 401.904C456.706 401.492 456.375 401.161 455.963 401.161H0.742832C0.330843 401.161 0 401.492 0 401.904Z" fill="#3F3D56"/>
<path d="M136.276 241.811C158.649 241.811 176.786 224.06 176.786 202.163C176.786 180.266 158.649 162.516 136.276 162.516C113.903 162.516 95.7664 180.266 95.7664 202.163C95.7664 224.06 113.903 241.811 136.276 241.811Z" fill="#087466"/>
<path d="M57.5893 395.56L68.3548 395.559L73.476 354.044L57.5872 354.045L57.5893 395.56Z" fill="#FFB6B6"/>
<path d="M94.4732 395.316C94.8084 395.881 94.9853 397.702 94.9853 398.359C94.9853 400.376 93.3494 402.012 91.3314 402.012H57.992C56.6154 402.012 55.4993 400.896 55.4993 399.52V398.132C55.4993 398.132 53.8501 393.961 57.2456 388.82C57.2456 388.82 61.4658 392.846 67.7719 386.541L69.6315 383.173L83.0925 393.015L90.5538 393.934C92.1862 394.135 93.6335 393.902 94.4732 395.316Z" fill="#2F2E41"/>
<path d="M65.7354 179.421L65.9531 164.904L56.999 159.323L47.2625 171.231L65.7354 179.421Z" fill="#FFB6B6"/>
<path opacity="0.1" d="M65.7354 179.421L66.315 165.265L56.999 159.323L60.1641 176.841L65.7354 179.421Z" fill="#F5C062" fill-opacity="0.84"/>
<path d="M87.4811 275.414L72.6467 376.338H54.0349L56.5098 318.728L57.8123 288.436L54.0349 274.017C54.0349 274.017 52.3127 270.812 50.8618 266.927C49.2264 262.543 47.9348 257.287 49.8524 254.795C50.5579 253.876 52.3923 253.196 54.8852 252.689C56.4085 252.378 58.1814 252.136 60.0954 251.948C71.1018 250.859 86.7575 251.539 86.7575 251.539L87.1555 264.67L87.3762 272.002L87.4811 275.414Z" fill="#2F2E41"/>
<path d="M38.6255 390.625L49.2766 392.19L60.3834 351.86L44.6634 349.551L38.6255 390.625Z" fill="#FFB6B6"/>
<path d="M75.1526 395.747C75.4021 396.354 75.3121 398.182 75.2166 398.832C74.923 400.828 73.0666 402.208 71.0701 401.914L38.0853 397.066C36.7233 396.866 35.7814 395.6 35.9817 394.238L36.1836 392.865C36.1836 392.865 35.1587 388.499 39.266 383.906C39.266 383.906 42.8557 388.503 50.012 383.182L52.3419 380.12L64.2277 391.816L71.476 393.809C73.0618 394.245 74.5275 394.226 75.1526 395.747Z" fill="#2F2E41"/>
<path d="M87.7146 258.582L85.6799 276.101L74.5838 313.018L56.3178 373.796L37.906 371.091L54.4304 284.674L52.7942 269.856C52.7942 269.856 52.2613 268.383 51.6506 266.226C50.4382 261.96 48.9176 255.013 50.5905 251.469C50.8164 250.987 51.0999 250.569 51.4507 250.231C52.1087 249.593 53.446 249.206 55.2377 249C62.7267 248.154 78.1497 250.574 85.0126 251.762L87.7146 258.582Z" fill="#2F2E41"/>
<path d="M49.3098 168.159L67.4005 176.841C67.4005 176.841 86.5767 233.634 86.5767 236.527C86.5767 239.421 92.0039 241.23 88.7476 244.486C85.4913 247.741 94.8085 250.498 89.7881 253.099C84.7676 255.699 53.4493 269.924 49.9668 268.641C40.3621 265.103 50.3738 252.103 50.3738 252.103C50.3738 252.103 43.1589 246.294 44.2444 243.4C45.3298 240.507 37.7317 185.161 37.7317 185.161L49.3098 168.159Z" fill="#E6E6E6"/>
<path d="M104.434 218.202C108.924 216.876 113.247 218.117 114.091 220.974C114.935 223.831 111.979 227.221 107.488 228.547C105.701 229.101 103.807 229.22 101.965 228.892L82.8708 234.271L80.5371 225.259L99.6084 220.913C100.977 219.637 102.632 218.708 104.434 218.202Z" fill="#FFB6B6"/>
<path d="M70.6612 186.263L67.6685 222.058L94.4755 222.346L99.6781 230.355C99.6781 230.355 67.1865 249.164 57.4302 239.554C47.6739 229.943 43.3329 189.499 52.0071 182.576C60.6813 175.654 70.6612 186.263 70.6612 186.263Z" fill="#E6E6E6"/>
<path d="M65.3581 169.115C73.9171 169.115 80.8555 162.178 80.8555 153.621C80.8555 145.064 73.9171 138.127 65.3581 138.127C56.7992 138.127 49.8608 145.064 49.8608 153.621C49.8608 162.178 56.7992 169.115 65.3581 169.115Z" fill="#FFB6B6"/>
<path d="M56.9995 153.682C56.9995 153.682 59.44 149.656 60.7823 147.582C62.1245 145.508 62.1245 142.469 62.1245 142.469C62.1245 142.469 74.5712 142.214 78.7201 145.752C82.869 149.29 85.7976 136.236 81.7707 131.722C81.7707 131.722 80.0624 133.674 80.4285 134.406L80.7945 135.138C80.7945 135.138 78.7201 126.842 72.7408 125.256C72.7408 125.256 69.4146 126.974 70.3455 127.945C71.2765 128.916 63.2228 122.084 60.7823 126.11C60.7823 126.11 54.803 125.988 55.5351 128.184L55.1691 129.526C55.1691 129.526 50.044 127.94 49.6779 131.722C49.6779 131.722 51.5083 131.722 52.4845 132.698C53.4607 133.674 48.9457 136.48 48.9457 136.48C48.9457 136.48 43.6986 150.876 50.7761 156.732C50.7761 156.732 50.8371 149.717 53.6437 151.425C56.4503 153.133 56.9995 153.682 56.9995 153.682Z" fill="#2F2E41"/>
<path d="M71.7476 162.832L71.1912 164.296L75.3645 164.418L75.6427 163.076L71.7476 162.832Z" fill="#2F2E41"/>
<path d="M75.9209 157.586C75.9209 157.586 69.661 155.878 65.905 161.002L65.0704 161.978C65.0704 161.978 57.1411 153.072 57.8367 149.778L56.1674 149.9L54.498 158.44C54.498 158.44 59.7842 167.59 67.157 167.956C67.157 167.956 74.2516 169.664 75.7818 166.736C77.312 163.808 79.9466 159.491 79.9466 159.491L75.9209 157.586ZM74.7823 165.76H70.6348C69.661 165.76 67.157 162.222 67.157 162.222C68.5481 160.026 72.7214 159.904 72.7214 159.904H77.2534L77.5902 161.246L74.7823 165.76Z" fill="#2F2E41"/>
<path d="M378.013 396.739L371.209 395.269L373.642 368.329L383.685 370.499L378.013 396.739Z" fill="#A0616A"/>
<path d="M354.733 391.549C354.444 391.86 354.084 392.988 353.994 393.403C353.718 394.678 354.529 395.935 355.804 396.21L376.877 400.762C377.747 400.95 378.605 400.397 378.793 399.527L378.983 398.65C378.983 398.65 380.595 396.239 379.151 392.526C379.151 392.526 375.934 394.494 372.809 389.648L372.094 387.266L362.241 391.649L357.399 391.211C356.34 391.115 355.457 390.77 354.733 391.549Z" fill="#2F2E41"/>
<path d="M365.842 394.679L360.165 390.65L373.005 366.841L381.384 372.787L365.842 394.679Z" fill="#A0616A"/>
<path d="M346.483 380.749C346.095 380.922 345.32 381.816 345.074 382.162C344.319 383.226 344.569 384.701 345.633 385.456L363.215 397.931C363.941 398.446 364.947 398.275 365.462 397.549L365.981 396.817C365.981 396.817 368.412 395.235 368.546 391.253C368.546 391.253 364.814 391.797 363.848 386.113L364.129 383.641L353.346 383.794L349.067 381.487C348.131 380.982 347.455 380.318 346.483 380.749Z" fill="#2F2E41"/>
<path d="M447.622 261.487C447.622 261.487 458.208 275.876 437.036 292.054L393.81 278.244L409.248 246.052L422.921 238.556L447.622 261.487Z" fill="#2F2E41"/>
<path d="M393.81 278.244L377.049 310.877L366.463 378.789L379.695 379.671L392.928 315.287L416.305 280.449L399.985 272.952" fill="#2F2E41"/>
<path d="M437.036 281.803V292.054L407.043 324.989C407.043 324.989 407.043 349.684 395.575 361.15L382.342 381.435L370.874 375.261L387.635 316.169L417.629 277.362L437.036 281.803Z" fill="#2F2E41"/>
<path d="M415.722 180.181L420.271 201.718L437.611 197.481C437.611 197.481 429.039 179.657 430.745 172.596L415.722 180.181Z" fill="#A0616A"/>
<path opacity="0.1" d="M415.722 180.181L420.271 201.718L437.611 197.481C437.611 197.481 429.039 179.657 430.745 172.596L415.722 180.181Z" fill="#F5C062" fill-opacity="0.84"/>
<path d="M432.184 183.432L418.952 189.605C418.952 189.605 412.145 193.765 412.019 196.536C411.894 199.307 412.777 212.537 412.777 212.537C412.777 212.537 407.484 217.829 411.012 228.412L409.248 246.052L448.945 267.219L445.417 230.176L447.181 195.779L432.184 183.432Z" fill="#E6E6E6"/>
<path d="M444.062 283.802C442.513 287.356 439.423 289.438 437.161 288.452C434.898 287.466 434.321 283.786 435.871 280.231C436.471 278.802 437.405 277.538 438.593 276.544L445.348 261.568L452.309 264.887L444.911 279.298C444.992 280.846 444.701 282.39 444.062 283.802Z" fill="#A0616A"/>
<path d="M437.036 197.985C437.036 197.985 446.74 191.811 450.268 198.866C453.797 205.922 461.737 242.083 461.737 242.083L450.268 276.48L439.683 272.07L448.945 235.052L437.036 197.985Z" fill="#E6E6E6"/>
<path d="M387.302 278.25C384.552 280.984 380.913 281.781 379.173 280.031C377.433 278.281 378.253 274.647 381.004 271.913C382.088 270.806 383.422 269.974 384.893 269.488L396.691 258.054L401.94 263.703L389.752 274.376C389.256 275.844 388.417 277.173 387.302 278.25Z" fill="#A0616A"/>
<path d="M412.393 195.881C412.393 195.881 429.311 195.189 429.991 203.048C430.672 210.907 419.107 245.976 419.107 245.976L395.77 273.729L387.554 265.73L409.806 234.727L412.393 195.881Z" fill="#E6E6E6"/>
<path d="M461.241 289.021L353.062 271.576C351.275 271.288 350.055 269.599 350.343 267.812C350.631 266.025 352.32 264.806 354.108 265.094L462.287 282.539C464.074 282.827 465.294 284.515 465.005 286.302C464.717 288.089 463.028 289.309 461.241 289.021Z" fill="#087466"/>
<path d="M320.839 270.685C325.281 270.685 328.883 267.085 328.883 262.643C328.883 258.201 325.281 254.601 320.839 254.601C316.396 254.601 312.795 258.201 312.795 262.643C312.795 267.085 316.396 270.685 320.839 270.685Z" fill="#087466"/>
<path d="M317.822 275.734L318.106 273.969C324.674 275.029 330.88 270.548 331.94 263.981C332.999 257.414 328.517 251.209 321.949 250.15L322.233 248.386C329.775 249.602 334.921 256.725 333.704 264.265C332.488 271.805 325.363 276.95 317.822 275.734Z" fill="#3F3D56"/>
<path d="M417.457 184.759C424.815 184.759 430.78 178.796 430.78 171.439C430.78 164.083 424.815 158.119 417.457 158.119C410.099 158.119 404.134 164.083 404.134 171.439C404.134 178.796 410.099 184.759 417.457 184.759Z" fill="#A0616A"/>
<path d="M425.33 171.439C425.33 171.439 417.013 163.891 411.683 166.555C406.354 169.219 403.69 170.995 403.69 170.995C403.69 170.995 399.249 164.335 405.91 158.563C405.91 158.563 392.352 152.641 402.24 143.392C412.128 134.143 421.01 137.695 421.01 137.695C421.01 137.695 433 143.023 424.562 153.679C424.562 153.679 436.855 161.473 430.487 174.226C430.487 174.226 429.892 166.111 428.115 168.331C426.339 170.551 425.33 171.439 425.33 171.439Z" fill="#2F2E41"/>
<path d="M150.194 217.09C145.101 204.571 140.008 192.051 134.915 179.532C134.212 177.803 132.008 177.741 131.321 179.532C126.289 192.657 123.001 206.354 121.42 220.318C121.15 222.697 124.879 222.677 125.146 220.318C125.765 214.853 126.683 209.43 127.862 204.064C132.059 204.284 136.291 203.813 140.341 202.692C142.427 207.822 144.514 212.951 146.601 218.081C147.493 220.273 151.099 219.314 150.194 217.09ZM128.707 200.38C129.963 195.244 131.468 190.168 133.214 185.174L138.925 199.213C135.58 200.091 132.159 200.481 128.707 200.38Z" fill="white"/>
<path d="M157.377 220.222C159.445 220.222 161.122 218.546 161.122 216.478C161.122 214.41 159.445 212.733 157.377 212.733C155.309 212.733 153.632 214.41 153.632 216.478C153.632 218.546 155.309 220.222 157.377 220.222Z" fill="white"/>
<path d="M118.053 187.147C120.121 187.147 121.798 185.471 121.798 183.403C121.798 181.335 120.121 179.658 118.053 179.658C115.984 179.658 114.307 181.335 114.307 183.403C114.307 185.471 115.984 187.147 118.053 187.147Z" fill="white"/>
</g>
<defs>
<clipPath id="clip0_64_1439">
<rect width="512" height="403" fill="white"/>
</clipPath>
</defs>
</svg>
