<svg width="108" height="103" viewBox="0 0 108 103" fill="none" xmlns="http://www.w3.org/2000/svg">
<g clip-path="url(#clip0_66_3025)">
<rect x="25.0122" width="87" height="79" rx="20" transform="rotate(18.458 25.0122 0)" fill="white"/>
<g filter="url(#filter0_d_66_3025)">
<line x1="27.8471" y1="27.8295" x2="66.7379" y2="40.8105" stroke="black" stroke-opacity="0.42" stroke-linecap="round" shape-rendering="crispEdges"/>
</g>
<g filter="url(#filter1_d_66_3025)">
<line x1="26.5807" y1="31.6235" x2="71.1628" y2="46.5041" stroke="black" stroke-opacity="0.42" stroke-linecap="round" shape-rendering="crispEdges"/>
</g>
<g filter="url(#filter2_d_66_3025)">
<line x1="25.3142" y1="35.4174" x2="69.8964" y2="50.298" stroke="black" stroke-opacity="0.42" stroke-linecap="round" shape-rendering="crispEdges"/>
</g>
<g filter="url(#filter3_d_66_3025)">
<line x1="24.0477" y1="39.2123" x2="88.5496" y2="60.7417" stroke="black" stroke-opacity="0.42" stroke-linecap="round" shape-rendering="crispEdges"/>
</g>
<g filter="url(#filter4_d_66_3025)">
<line x1="22.7814" y1="43.0063" x2="87.2832" y2="64.5357" stroke="black" stroke-opacity="0.42" stroke-linecap="round" shape-rendering="crispEdges"/>
</g>
<g filter="url(#filter5_d_66_3025)">
<line x1="21.5149" y1="46.8002" x2="86.0167" y2="68.3296" stroke="black" stroke-opacity="0.42" stroke-linecap="round" shape-rendering="crispEdges"/>
</g>
<g filter="url(#filter6_d_66_3025)">
<line x1="20.2484" y1="50.5942" x2="84.7503" y2="72.1236" stroke="black" stroke-opacity="0.42" stroke-linecap="round" shape-rendering="crispEdges"/>
</g>
<g clip-path="url(#clip1_66_3025)">
<path d="M57.8561 10.9626L62.5989 12.5456C62.7953 12.6112 62.9472 12.7731 63.0039 12.9732L64.505 18.4819C62.6202 18.0216 60.7054 18.2679 59.056 19.064L57.0554 11.7207C56.9937 11.4984 57.0605 11.2612 57.2286 11.1032C57.3966 10.9451 57.6375 10.8896 57.8561 10.9626ZM75.8264 17.9861L69.815 22.6592C68.9781 21.0332 67.5915 19.685 65.808 18.9209L70.3182 15.4146C70.485 15.2849 70.7024 15.2504 70.8988 15.316L75.6416 16.899C75.8602 16.972 76.0207 17.1573 76.0589 17.3884C76.0971 17.6194 76.0093 17.8454 75.8264 17.9861ZM69.1147 28.5573C67.9126 32.1588 64.0182 34.1041 60.4167 32.9019C56.8151 31.6998 54.8699 27.8055 56.072 24.2039C57.2742 20.6024 61.1685 18.6572 64.77 19.8593C68.3716 21.0614 70.3168 24.9557 69.1147 28.5573ZM64.0783 22.9682C64.0389 22.6668 63.6721 22.5443 63.4558 22.7604L62.0643 24.1656C61.9778 24.252 61.858 24.2902 61.7419 24.268L59.7915 23.9176C59.4926 23.8631 59.2652 24.1743 59.401 24.4461L60.3082 26.2068C60.3625 26.3155 60.3624 26.439 60.3056 26.5477L59.3698 28.2903C59.2276 28.5558 59.4511 28.8733 59.7513 28.8253L61.7031 28.5049C61.8205 28.4864 61.9427 28.5272 62.0255 28.6125L63.3936 30.041C63.6047 30.2597 63.9729 30.1438 64.0199 29.8424L64.3184 27.8871C64.337 27.7697 64.4124 27.6673 64.5211 27.6129L66.3039 26.7502C66.5782 26.6194 66.5796 26.2327 66.3092 26.0931L64.5431 25.203C64.4369 25.151 64.3616 25.0435 64.3468 24.9274L64.0783 22.9682Z" fill="#F5C062" fill-opacity="0.84"/>
</g>
<g clip-path="url(#clip2_66_3025)">
<path d="M43.9548 79.3626C43.4969 79.5913 42.9363 79.4042 42.7076 78.9463L41.3647 76.2578C41.136 75.7999 41.3231 75.2393 41.781 75.0106C42.2388 74.7819 42.7995 74.969 43.0282 75.4269L43.9556 77.2836L48.5008 75.0133C48.9587 74.7846 49.5193 74.9717 49.748 75.4296C49.9767 75.8875 49.7896 76.4481 49.3317 76.6768L43.9548 79.3626ZM53.2827 79.5427C51.7962 83.9961 46.9822 86.4007 42.5288 84.9143C38.0754 83.4278 35.6708 78.6138 37.1572 74.1604C38.6437 69.707 43.4577 67.3024 47.9111 68.7888C52.3645 70.2753 54.7691 75.0893 53.2827 79.5427ZM47.4065 70.3006C43.7877 69.0927 39.8769 71.0462 38.669 74.665C37.4611 78.2838 39.4146 82.1947 43.0334 83.4025C46.6521 84.6104 50.563 82.6569 51.7709 79.0381C52.9788 75.4194 51.0253 71.5085 47.4065 70.3006Z" fill="#225F5F"/>
</g>
</g>
<defs>
<filter id="filter0_d_66_3025" x="23.3469" y="27.3291" width="47.8911" height="21.9814" filterUnits="userSpaceOnUse" color-interpolation-filters="sRGB">
<feFlood flood-opacity="0" result="BackgroundImageFix"/>
<feColorMatrix in="SourceAlpha" type="matrix" values="0 0 0 0 0 0 0 0 0 0 0 0 0 0 0 0 0 0 127 0" result="hardAlpha"/>
<feOffset dy="4"/>
<feGaussianBlur stdDeviation="2"/>
<feComposite in2="hardAlpha" operator="out"/>
<feColorMatrix type="matrix" values="0 0 0 0 0 0 0 0 0 0 0 0 0 0 0 0 0 0 0.25 0"/>
<feBlend mode="normal" in2="BackgroundImageFix" result="effect1_dropShadow_66_3025"/>
<feBlend mode="normal" in="SourceGraphic" in2="effect1_dropShadow_66_3025" result="shape"/>
</filter>
<filter id="filter1_d_66_3025" x="22.0806" y="31.123" width="53.5824" height="23.8809" filterUnits="userSpaceOnUse" color-interpolation-filters="sRGB">
<feFlood flood-opacity="0" result="BackgroundImageFix"/>
<feColorMatrix in="SourceAlpha" type="matrix" values="0 0 0 0 0 0 0 0 0 0 0 0 0 0 0 0 0 0 127 0" result="hardAlpha"/>
<feOffset dy="4"/>
<feGaussianBlur stdDeviation="2"/>
<feComposite in2="hardAlpha" operator="out"/>
<feColorMatrix type="matrix" values="0 0 0 0 0 0 0 0 0 0 0 0 0 0 0 0 0 0 0.25 0"/>
<feBlend mode="normal" in2="BackgroundImageFix" result="effect1_dropShadow_66_3025"/>
<feBlend mode="normal" in="SourceGraphic" in2="effect1_dropShadow_66_3025" result="shape"/>
</filter>
<filter id="filter2_d_66_3025" x="20.8141" y="34.917" width="53.5824" height="23.8809" filterUnits="userSpaceOnUse" color-interpolation-filters="sRGB">
<feFlood flood-opacity="0" result="BackgroundImageFix"/>
<feColorMatrix in="SourceAlpha" type="matrix" values="0 0 0 0 0 0 0 0 0 0 0 0 0 0 0 0 0 0 127 0" result="hardAlpha"/>
<feOffset dy="4"/>
<feGaussianBlur stdDeviation="2"/>
<feComposite in2="hardAlpha" operator="out"/>
<feColorMatrix type="matrix" values="0 0 0 0 0 0 0 0 0 0 0 0 0 0 0 0 0 0 0.25 0"/>
<feBlend mode="normal" in2="BackgroundImageFix" result="effect1_dropShadow_66_3025"/>
<feBlend mode="normal" in="SourceGraphic" in2="effect1_dropShadow_66_3025" result="shape"/>
</filter>
<filter id="filter3_d_66_3025" x="19.5476" y="38.7119" width="73.5021" height="30.5303" filterUnits="userSpaceOnUse" color-interpolation-filters="sRGB">
<feFlood flood-opacity="0" result="BackgroundImageFix"/>
<feColorMatrix in="SourceAlpha" type="matrix" values="0 0 0 0 0 0 0 0 0 0 0 0 0 0 0 0 0 0 127 0" result="hardAlpha"/>
<feOffset dy="4"/>
<feGaussianBlur stdDeviation="2"/>
<feComposite in2="hardAlpha" operator="out"/>
<feColorMatrix type="matrix" values="0 0 0 0 0 0 0 0 0 0 0 0 0 0 0 0 0 0 0.25 0"/>
<feBlend mode="normal" in2="BackgroundImageFix" result="effect1_dropShadow_66_3025"/>
<feBlend mode="normal" in="SourceGraphic" in2="effect1_dropShadow_66_3025" result="shape"/>
</filter>
<filter id="filter4_d_66_3025" x="18.2812" y="42.5059" width="73.5021" height="30.5303" filterUnits="userSpaceOnUse" color-interpolation-filters="sRGB">
<feFlood flood-opacity="0" result="BackgroundImageFix"/>
<feColorMatrix in="SourceAlpha" type="matrix" values="0 0 0 0 0 0 0 0 0 0 0 0 0 0 0 0 0 0 127 0" result="hardAlpha"/>
<feOffset dy="4"/>
<feGaussianBlur stdDeviation="2"/>
<feComposite in2="hardAlpha" operator="out"/>
<feColorMatrix type="matrix" values="0 0 0 0 0 0 0 0 0 0 0 0 0 0 0 0 0 0 0.25 0"/>
<feBlend mode="normal" in2="BackgroundImageFix" result="effect1_dropShadow_66_3025"/>
<feBlend mode="normal" in="SourceGraphic" in2="effect1_dropShadow_66_3025" result="shape"/>
</filter>
<filter id="filter5_d_66_3025" x="17.0148" y="46.2998" width="73.5021" height="30.5303" filterUnits="userSpaceOnUse" color-interpolation-filters="sRGB">
<feFlood flood-opacity="0" result="BackgroundImageFix"/>
<feColorMatrix in="SourceAlpha" type="matrix" values="0 0 0 0 0 0 0 0 0 0 0 0 0 0 0 0 0 0 127 0" result="hardAlpha"/>
<feOffset dy="4"/>
<feGaussianBlur stdDeviation="2"/>
<feComposite in2="hardAlpha" operator="out"/>
<feColorMatrix type="matrix" values="0 0 0 0 0 0 0 0 0 0 0 0 0 0 0 0 0 0 0.25 0"/>
<feBlend mode="normal" in2="BackgroundImageFix" result="effect1_dropShadow_66_3025"/>
<feBlend mode="normal" in="SourceGraphic" in2="effect1_dropShadow_66_3025" result="shape"/>
</filter>
<filter id="filter6_d_66_3025" x="15.7483" y="50.0938" width="73.5021" height="30.5303" filterUnits="userSpaceOnUse" color-interpolation-filters="sRGB">
<feFlood flood-opacity="0" result="BackgroundImageFix"/>
<feColorMatrix in="SourceAlpha" type="matrix" values="0 0 0 0 0 0 0 0 0 0 0 0 0 0 0 0 0 0 127 0" result="hardAlpha"/>
<feOffset dy="4"/>
<feGaussianBlur stdDeviation="2"/>
<feComposite in2="hardAlpha" operator="out"/>
<feColorMatrix type="matrix" values="0 0 0 0 0 0 0 0 0 0 0 0 0 0 0 0 0 0 0.25 0"/>
<feBlend mode="normal" in2="BackgroundImageFix" result="effect1_dropShadow_66_3025"/>
<feBlend mode="normal" in="SourceGraphic" in2="effect1_dropShadow_66_3025" result="shape"/>
</filter>
<clipPath id="clip0_66_3025">
<rect x="25.0122" width="87" height="79" rx="20" transform="rotate(18.458 25.0122 0)" fill="white"/>
</clipPath>
<clipPath id="clip1_66_3025">
<rect width="20" height="20" fill="white" transform="translate(57.2631 10.7646) rotate(18.458)"/>
</clipPath>
<clipPath id="clip2_66_3025">
<rect width="17" height="17" fill="white" transform="translate(39.8484 66.0977) rotate(18.458)"/>
</clipPath>
</defs>
</svg>
