<svg width="27" height="27" viewBox="0 0 27 27" fill="none" xmlns="http://www.w3.org/2000/svg">
<mask id="mask0_421_2486" style="mask-type:alpha" maskUnits="userSpaceOnUse" x="0" y="0" width="27" height="27">
<circle cx="13.5" cy="13.5" r="13.5" fill="#D9D9D9"/>
</mask>
<g mask="url(#mask0_421_2486)">
<rect y="27" width="27" height="27" transform="rotate(-90 0 27)" fill="#DD2033"/>
<path d="M17.2092 10.3765L16.8265 12.8348L14.6165 13.7404L16.7467 14.9391L16.9414 17.4364L18.5923 15.5382L20.9711 16.3566L19.8911 14.0966L21.1365 11.9934L18.7699 12.3141L17.2092 10.3765Z" fill="#F5F7F8"/>
<path d="M15.1299 9.59528C14.3958 9.11393 13.5178 8.83398 12.5744 8.83398C9.99705 8.83398 7.90771 10.9233 7.90771 13.5007C7.90771 16.078 9.99705 18.1673 12.5744 18.1673C13.5167 18.1673 14.3938 17.888 15.1274 17.4077C14.027 18.6887 12.3954 19.5 10.5742 19.5C7.26051 19.5 4.57422 16.8137 4.57422 13.5C4.57422 10.1863 7.26051 7.5 10.5742 7.5C12.3968 7.5 14.0295 8.31261 15.1299 9.59528Z" fill="#F5F7F8"/>
</g>
</svg>
